<?xml version="1.0" encoding="utf-8"?>
<!-- Generator: Adobe Illustrator 27.5.0, SVG Export Plug-In . SVG Version: 6.00 Build 0)  -->
<svg version="1.1" xmlns="http://www.w3.org/2000/svg" xmlns:xlink="http://www.w3.org/1999/xlink" x="0px" y="0px"
	 viewBox="0 0 750 500" style="enable-background:new 0 0 750 500;" xml:space="preserve">
<g id="Background_Complete">
	<g>
		<g>
			<path style="fill:#F5F5F5;" d="M280.296,172.093l-61.802,2.529l0.343-3.288c0,0,5.131,0.077,5.891-0.564
				c0.76-0.642,4.295-6.501,5.36-6.143c1.065,0.357,51.422,5.184,51.422,5.184L280.296,172.093z"/>
		</g>
		<g>
			<path style="fill:#F5F5F5;" d="M209.34,170.793c1.473-2.769,4.912-3.819,7.681-2.346c2.769,1.473,3.819,4.912,2.346,7.681
				c-1.473,2.769-4.912,3.819-7.681,2.346C208.917,177.001,207.867,173.562,209.34,170.793z"/>
		</g>
		<g>
			<path style="fill:#F5F5F5;" d="M214.076,177.928l-2.598,4.882c0,0,2.341,8.047,2.118,8.465
				c-0.223,0.419-28.688,41.474-28.688,41.474l-2.65-1.41l29.168-54.822L214.076,177.928z"/>
		</g>
		<g>
			<polygon style="fill:#F5F5F5;" points="213.798,169.368 210.702,170.476 207.538,165.322 198.706,164.094 178.36,117.223 
				180.287,115.955 			"/>
		</g>
		<g>
			<polygon style="fill:#F5F5F5;" points="212.447,173.107 210.97,287.709 222.328,287.709 219.062,175.54 			"/>
		</g>
	</g>
	<g>
		<g>
			<path style="fill:#E0E0E0;" d="M37.69,177.7l72.055-42.204l1.676,4.137c0,0-6.164,3.161-6.663,4.408
				c-0.499,1.247-0.997,10.472-2.493,10.721c-1.496,0.249-64.575,26.428-64.575,26.428V177.7z"/>
		</g>
		<g>
			<path style="fill:#E0E0E0;" d="M123.084,134.255c0,4.234-3.433,7.667-7.667,7.667c-4.234,0-7.667-3.432-7.667-7.667
				c0-4.234,3.433-7.667,7.667-7.667C119.652,126.588,123.084,130.021,123.084,134.255z"/>
		</g>
		<g>
			<path style="fill:#E0E0E0;" d="M112.915,128.754v-7.466c0,0-7.893-8.106-7.893-8.746c0-0.64,7.893-67.623,7.893-67.623h4.053
				v83.836H112.915z"/>
		</g>
		<g>
			<polygon style="fill:#E0E0E0;" points="118.675,138.78 121.661,135.496 128.701,139.633 140.007,135.496 193.978,178.458 
				192.485,181.191 			"/>
		</g>
		<g>
			<polygon style="fill:#E0E0E0;" points="109.745,135.496 107.751,290.215 123.084,290.215 118.675,138.78 			"/>
		</g>
	</g>
	<g>
		<g>
			<path style="fill:#E0E0E0;" d="M634.434,223.62l-33.331-52.104l3.013-1.361c0,0,2.519,4.471,3.456,4.803
				c0.937,0.333,7.779,0.434,8.008,1.534c0.228,1.1,21.438,47.027,21.438,47.027L634.434,223.62z"/>
		</g>
		<g>
			<path style="fill:#E0E0E0;" d="M594.757,163.457c1.473-2.769,4.912-3.819,7.681-2.346c2.769,1.473,3.819,4.912,2.346,7.681
				c-1.473,2.769-4.912,3.819-7.681,2.346C594.334,169.665,593.284,166.226,594.757,163.457z"/>
		</g>
		<g>
			<path style="fill:#E0E0E0;" d="M596.021,169.365l-5.526,0.217c0,0-5.771,6.078-6.244,6.096c-0.474,0.019-50.28-3.877-50.28-3.877
				l-0.118-3l62.051-2.436L596.021,169.365z"/>
		</g>
		<g>
			<polygon style="fill:#E0E0E0;" points="603.274,164.811 600.757,162.696 603.614,157.365 600.224,149.117 630.453,107.923 
				632.519,108.949 			"/>
		</g>
		<g>
			<polygon style="fill:#E0E0E0;" points="597.865,165.771 596.387,280.373 607.745,280.373 604.479,168.204 			"/>
		</g>
	</g>
	<g>
		<path style="fill:#EBEBEB;" d="M735.841,302.621c-12.607-12.62-30.915-17.7-48.631-19.785
			c-17.716-2.085-35.775-1.692-53.166-5.659c-42.888-9.782-75.702-44.323-116.441-60.921
			c-33.828-13.783-72.835-14.376-107.066-1.627c-26.735,9.957-51.755,27.919-80.283,27.606
			c-21.579-0.236-43.128-11.124-64.015-5.696c-19.019,4.943-32.055,22.035-48.732,32.431
			c-27.937,17.415-63.333,14.775-96.225,13.418c-32.892-1.357-69.54,0.619-92.805,23.909L735.841,302.621z"/>
	</g>
	<g>
		<g>
			<g>
				<g>
					<g>
						<path style="fill:#F5F5F5;" d="M237.154,98.984h105.519c0,0-9.331-16.98-36.492-14.509
							c-25.94,2.361-27.259-8.354-40.449-9.673C252.543,73.484,241.551,83.596,237.154,98.984z"/>
					</g>
				</g>
			</g>
		</g>
	</g>
	<g>
		<g>
			<g>
				<g>
					<g>
						<path style="fill:#EBEBEB;" d="M320.916,138.803h87.288c0,0-7.719-14.047-30.187-12.002
							c-21.458,1.953-22.549-6.91-33.46-8.001C333.645,117.709,324.553,126.074,320.916,138.803z"/>
					</g>
				</g>
			</g>
		</g>
	</g>
	<g>
		<g>
			<g>
				<g>
					<g>
						<path style="fill:#EBEBEB;" d="M475.404,100.736h120.737c0,0-10.677-19.429-41.755-16.601
							c-29.681,2.701-31.19-9.558-46.283-11.068C493.012,71.558,480.435,83.129,475.404,100.736z"/>
					</g>
				</g>
			</g>
		</g>
	</g>
</g>
<g id="Background_Simple" style="display:none;">
	<g style="display:inline;">
		<path style="fill:#EBEBEB;" d="M146.838,182.035l1.242-4.561c10.469-38.45,43.863-70.768,87.578-82.966
			c5.62-1.568,11.344-2.797,17.129-3.657c41.65-6.194,85.086,6.919,111.36,33.619c15.452,15.703,26.039,36.213,47.424,45.6
			c27.831,12.216,62.704,1.127,92.852-9.942c30.147-11.069,65.072-22.091,92.834-9.766c17.386,7.719,28.069,23.434,33.299,39.864
			c13.845,43.499-6.948,93.588-44.862,127.791c-37.914,34.203-90.559,53.887-143.345,62.282
			c-73.948,11.761-152.413,2.008-211.328-34.071C172.106,310.148,135.855,246.14,146.838,182.035z"/>
	</g>
</g>
<g id="Floor">
	<g>
		<g>
			<path style="fill:#263238;" d="M714.311,429.257c0,0.144-145.269,0.26-324.426,0.26c-179.219,0-324.457-0.117-324.457-0.26
				c0-0.144,145.238-0.26,324.457-0.26C569.042,428.996,714.311,429.113,714.311,429.257z"/>
		</g>
	</g>
</g>
<g id="Car">
	<g>
		<g>
			<g>
				
					<rect x="85.577" y="332.058" transform="matrix(-1 -0.0015 0.0015 -1 614.0428 730.2175)" style="fill:#455A64;" width="443.449" height="65.63"/>
			</g>
			<g>
				<path style="fill:#E8505B;" d="M552.174,284.046c0,0-11.098,1.244-13.063-0.02c-4.458-2.866-101.524-41.977-184.918-42.088
					c-66.89-0.088-127.12,17.656-185.706,56.757c0,0-71.334,7.866-99.191,28.748c-6.518,3.78-19.807,18.672-14.736,52.511
					c3.235,21.587,19.3,22.499,41.248,22.01c0,0-8.167-65.549,50.258-60.538c49.636,4.257,40.137,64.858,40.137,64.858
					l248.733,0.381c0,0,1.087-26.914,2.142-33.44c2.11-13.061,18.342-34.461,48.645-31.279c33.236,3.49,44.298,33.823,42.168,59.424
					c0,0,35.067,7.58,39.813-20.63l8.365-2.6c0,0,3.225-58.521-26-83.126l6.277-4.171L552.174,284.046z"/>
			</g>
			<g>
				<path style="fill:#455A64;" d="M535.635,282.179c0,0-2.076,5.644-9.204,5.013c-5.808-0.514-39.009-13.092-51.105-17.733
					c-3.473-1.333-6.245-4.154-7.226-7.742c-0.244-0.894-0.339-1.712-0.155-2.306C467.945,259.411,519.542,271.803,535.635,282.179z
					"/>
			</g>
			<g>
				<path style="fill:#455A64;" d="M250.72,257.673L250.72,257.673c-0.007,4.852-2.8,9.269-7.18,11.356l-70.994,33.832l-4.057-4.369
					c0,0,7.418-5.344,17.119-11.109c8.97-5.33,19.991-10.972,26.569-14.199C232.516,263.204,250.72,257.673,250.72,257.673z"/>
			</g>
			<g style="opacity:0.3;">
				<path style="fill:#FFFFFF;" d="M486.437,287.188c0,0,3.502,3.044-0.01,6.638c-3.512,3.594-20.286,16.067-28.08,16.82
					c-7.794,0.752-244.33,16.554-258.351,12.542c-14.021-4.013-22.193-11.108-18.68-15.16l6.357-2.099l111.518,2.279
					L486.437,287.188z"/>
			</g>
			<g style="opacity:0.7;">
				<path style="fill:#FFFFFF;" d="M572.492,337.49c0,0-13.774,4.076-19.647-6.783c-5.873-10.858-12.365-22.337-12.361-24.816
					c0.005-3.115,2.225-13.108,9.586-11.078C550.07,294.813,570.536,311.125,572.492,337.49z"/>
			</g>
			<g style="opacity:0.7;">
				<path style="fill:#FFFFFF;" d="M63.234,348.629c0,0,53.312-21.326,44.686-28.602C103.369,316.188,59.525,337.307,63.234,348.629
					"/>
			</g>
			<g>
				<g>
					<path style="fill:#263238;" d="M84.965,401.788c0,0-0.03-0.18-0.054-0.533c-0.023-0.353-0.056-0.88-0.073-1.57
						c-0.042-1.381-0.06-3.42,0.045-6.043c0.238-5.231,0.886-12.865,3.401-21.934c1.281-4.517,3.076-9.378,5.707-14.249
						c2.623-4.858,6.111-9.756,10.799-13.88c0.587-0.512,1.177-1.028,1.771-1.546c0.634-0.469,1.271-0.941,1.913-1.416
						c1.246-1.004,2.687-1.751,4.059-2.632c0.691-0.435,1.452-0.751,2.18-1.135c0.744-0.354,1.463-0.772,2.237-1.077
						c0.774-0.306,1.551-0.613,2.333-0.922l1.175-0.464l1.214-0.366c1.624-0.485,3.252-1.014,4.953-1.31
						c0.843-0.176,1.69-0.354,2.54-0.532c0.858-0.129,1.724-0.225,2.591-0.339c0.868-0.104,1.737-0.235,2.613-0.317
						c0.879-0.046,1.76-0.092,2.645-0.138c1.769-0.094,3.549-0.222,5.345-0.121c7.17,0.077,14.206,1.269,20.503,3.808
						c6.294,2.521,11.806,6.337,16.036,10.914c4.244,4.575,7.345,9.703,9.627,14.731c2.284,5.041,3.778,9.996,4.825,14.572
						c2.062,9.178,2.445,16.818,2.518,22.055c0.017,2.625-0.062,4.662-0.146,6.04c-0.043,0.689-0.089,1.214-0.128,1.566
						c-0.039,0.352-0.08,0.53-0.08,0.53c-0.011-0.002,0.006-0.182,0.027-0.535c0.018-0.374,0.043-0.895,0.076-1.567
						c0.051-1.378,0.097-3.413,0.049-6.032c-0.134-5.226-0.574-12.845-2.674-21.975c-1.066-4.552-2.573-9.476-4.859-14.476
						c-2.284-4.987-5.374-10.063-9.584-14.582c-4.197-4.521-9.648-8.281-15.876-10.769c-6.23-2.504-13.2-3.684-20.32-3.76
						c-7.118-0.051-14.121,0.673-20.524,2.721l-1.203,0.361l-1.163,0.458c-0.773,0.304-1.544,0.607-2.31,0.909
						c-0.767,0.301-1.478,0.714-2.215,1.063c-0.721,0.379-1.475,0.69-2.159,1.119c-1.357,0.87-2.785,1.606-4.019,2.597
						c-0.635,0.468-1.267,0.934-1.895,1.397c-0.589,0.512-1.174,1.021-1.755,1.527c-4.648,4.071-8.118,8.914-10.738,13.728
						c-2.629,4.826-4.434,9.653-5.732,14.144c-2.549,9.017-3.253,16.625-3.552,21.843c-0.136,2.616-0.15,4.652-0.143,6.031
						c0.009,0.674,0.016,1.195,0.021,1.569C84.97,401.606,84.965,401.788,84.965,401.788z"/>
				</g>
			</g>
			<g>
				<g>
					<path style="fill:#263238;" d="M426.551,406.449c0,0-0.035-0.177-0.068-0.525c-0.034-0.348-0.078-0.867-0.118-1.548
						c-0.082-1.361-0.168-3.373-0.148-5.965c0.057-5.172,0.401-12.719,2.409-21.789c1.018-4.522,2.477-9.419,4.704-14.411
						c2.224-4.982,5.33-10.025,9.526-14.531c4.149-4.55,9.633-8.269,15.846-10.751c6.219-2.508,13.176-3.65,20.248-3.775
						c7.078-0.199,14.052,0.49,20.479,2.387c0.402,0.115,0.811,0.206,1.205,0.34l1.17,0.433c0.778,0.288,1.552,0.575,2.323,0.861
						c1.527,0.605,2.962,1.387,4.424,2.061c1.371,0.845,2.779,1.604,4.068,2.509c0.635,0.467,1.266,0.932,1.893,1.394
						c0.31,0.235,0.633,0.453,0.931,0.699l0.867,0.768c4.67,4.021,8.221,8.781,10.841,13.569c2.607,4.81,4.322,9.637,5.54,14.109
						c2.392,8.982,2.884,16.54,2.984,21.708c0.042,2.592-0.029,4.604-0.111,5.966c-0.043,0.681-0.087,1.199-0.127,1.547
						c-0.038,0.348-0.081,0.523-0.081,0.523c-0.011-0.002,0.007-0.18,0.028-0.528c0.018-0.369,0.043-0.884,0.075-1.547
						c0.048-1.361,0.086-3.37,0.013-5.956c-0.161-5.155-0.71-12.689-3.136-21.615c-1.234-4.445-2.961-9.236-5.563-14
						c-2.616-4.742-6.146-9.445-10.774-13.412l-0.859-0.758c-0.295-0.243-0.615-0.458-0.922-0.689
						c-0.621-0.455-1.246-0.914-1.875-1.374c-1.276-0.893-2.671-1.641-4.027-2.474c-1.448-0.664-2.867-1.436-4.379-2.033
						c-0.763-0.282-1.53-0.565-2.3-0.849l-1.158-0.428c-0.39-0.132-0.796-0.222-1.194-0.335c-6.366-1.872-13.284-2.553-20.319-2.355
						c-7.041,0.125-13.918,1.254-20.075,3.728c-6.147,2.449-11.57,6.112-15.685,10.606c-4.161,4.45-7.256,9.439-9.482,14.38
						c-2.229,4.95-3.702,9.816-4.738,14.315c-2.045,9.022-2.446,16.549-2.565,21.71c-0.051,2.587,0.002,4.596,0.051,5.958
						c0.028,0.664,0.05,1.179,0.066,1.549C426.552,406.27,426.551,406.449,426.551,406.449z"/>
				</g>
			</g>
			<g>
				<path style="fill:#455A64;" d="M484.099,287.184c0,0-20.679,17.999-29.64,17.985c-8.962-0.014-245.106,14.323-255.62,10.074
					c-10.514-4.249-15.978-7.726-15.978-7.726s77.064-55.497,166.861-52.834C415.623,256.639,484.099,287.184,484.099,287.184z"/>
			</g>
			<g>
				<polygon style="fill:#263238;" points="230.537,281.034 214.938,316.034 207.02,316.022 219.907,286.059 				"/>
			</g>
			<g style="opacity:0.3;">
				<path d="M399.397,332.2l27.995,0.043l0.009-5.545c0.001-0.699-0.565-1.266-1.263-1.267l-25.465-0.039
					c-0.699-0.001-1.266,0.565-1.267,1.263L399.397,332.2z"/>
			</g>
			<g style="opacity:0.3;">
				<path d="M290.27,332.032l27.995,0.043l0.009-5.545c0.001-0.699-0.565-1.266-1.263-1.267l-25.465-0.039
					c-0.699-0.001-1.266,0.565-1.267,1.263L290.27,332.032z"/>
			</g>
			<g>
				<polygon style="fill:#263238;" points="415.197,264.307 439.648,305.861 416.867,307.083 419.808,287.086 404.846,261.909 				
					"/>
			</g>
			<g>
				<polygon style="fill:#263238;" points="326.056,255.278 322.255,312.04 330.564,311.629 334.147,254.773 				"/>
			</g>
			<g>
				<g>
					<path style="fill:#263238;" d="M219.636,324.607l3.555-3.67l-5.648-7.184l-4.869,4.647c0,0-0.971,0.659-1.242,2.442
						C210.754,325.306,216.495,327.849,219.636,324.607z"/>
				</g>
				<g>
					<path style="fill:#E8505B;" d="M234.03,323.255c8.628,0.29,15.415-8.508,11.833-16.363c-0.874-1.915-2.296-3.339-4.535-3.732
						c-8.959-1.572-20.648-2.15-23.784,10.593c-0.926,3.763,1.19,6.092,4.632,7.506C225.426,322.595,229.859,323.115,234.03,323.255
						z"/>
				</g>
			</g>
			<g>
				<g>
					
						<ellipse transform="matrix(0.069 -0.9976 0.9976 0.069 -257.5695 500.932)" style="fill:#263238;" cx="139.607" cy="388.468" rx="39.573" ry="39.573"/>
				</g>
				<g id="XMLID_4_">
					<g>
						<path style="fill:#E0E0E0;" d="M139.649,362.106c-14.562-0.022-26.353,11.772-26.376,26.334
							c-0.022,14.523,11.733,26.353,26.295,26.376c14.562,0.022,26.353-11.772,26.376-26.295
							C165.966,373.959,154.211,362.129,139.649,362.106z M118.502,388.448c0.018-11.657,9.482-21.131,21.139-21.113
							c11.657,0.018,21.092,9.521,21.075,21.178s-9.482,21.092-21.139,21.075C127.919,409.569,118.484,400.105,118.502,388.448z"/>
						<path style="fill:#F5F5F5;" d="M139.641,367.335c-11.657-0.018-21.121,9.456-21.139,21.113s9.417,21.121,21.075,21.139
							c11.657,0.018,21.121-9.417,21.139-21.075S151.298,367.353,139.641,367.335z"/>
					</g>
				</g>
				<g>
					<path style="fill:#263238;" d="M133.371,388.541c-0.005,3.444,2.782,6.241,6.226,6.246c3.444,0.005,6.24-2.783,6.245-6.227
						c0.005-3.444-2.782-6.24-6.226-6.246C136.173,382.31,133.376,385.098,133.371,388.541z"/>
				</g>
			</g>
			<g>
				<g>
					
						<ellipse transform="matrix(0.7071 -0.7071 0.7071 0.7071 -135.0833 453.6526)" style="fill:#263238;" cx="480.065" cy="389.886" rx="39.573" ry="39.573"/>
				</g>
				<g id="XMLID_3_">
					<g>
						<path style="fill:#E0E0E0;" d="M480.107,363.525c-14.562-0.022-26.353,11.772-26.376,26.333
							c-0.022,14.523,11.733,26.353,26.295,26.376c14.562,0.022,26.353-11.772,26.376-26.295
							C506.424,375.377,494.669,363.547,480.107,363.525z M458.96,389.866c0.018-11.657,9.482-21.131,21.139-21.113
							c11.657,0.018,21.092,9.521,21.074,21.178c-0.018,11.657-9.482,21.092-21.139,21.075
							C468.377,410.987,458.942,401.523,458.96,389.866z"/>
						<path style="fill:#F5F5F5;" d="M480.099,368.753c-11.657-0.018-21.121,9.456-21.139,21.113s9.417,21.121,21.074,21.139
							c11.657,0.018,21.121-9.417,21.139-21.075C501.192,378.274,491.757,368.771,480.099,368.753z"/>
					</g>
				</g>
				<g>
					<path style="fill:#263238;" d="M473.829,389.959c-0.005,3.444,2.782,6.241,6.226,6.246c3.444,0.005,6.24-2.783,6.245-6.227
						c0.005-3.444-2.782-6.24-6.226-6.245C476.631,383.728,473.835,386.516,473.829,389.959z"/>
				</g>
			</g>
			<g>
				<path style="fill:#263238;" d="M498.806,315.544c-0.049,3.394-2.841,6.106-6.235,6.057c-3.394-0.049-6.106-2.84-6.057-6.235
					c0.049-3.394,2.841-6.106,6.235-6.057C496.143,309.358,498.855,312.15,498.806,315.544z"/>
			</g>
		</g>
		<g>
			<g>
				<path style="fill:#263238;" d="M426.401,392.503c0,0-0.201,0.021-0.595,0.035c-0.413,0.012-0.993,0.028-1.747,0.049
					c-1.556,0.032-3.816,0.078-6.717,0.137c-5.853,0.094-14.289,0.23-24.705,0.397c-20.878,0.26-49.689,0.619-81.51,1.015
					c-31.841,0.33-60.665,0.546-81.529,0.578c-10.432,0.016-18.874-0.014-24.708-0.1c-5.826-0.083-9.078-0.229-9.035-0.428
					c-0.024,0.059,0.79,0.118,2.321,0.153c1.534,0.038,3.799,0.061,6.715,0.073c5.833,0.023,14.274-0.003,24.705-0.066
					c20.878-0.187,49.692-0.445,81.525-0.73c31.822-0.336,60.633-0.641,81.511-0.862c10.417-0.098,18.854-0.177,24.707-0.232
					c2.902-0.017,5.162-0.03,6.718-0.039c0.754,0.001,1.334,0.002,1.747,0.003C426.199,392.488,426.401,392.503,426.401,392.503z"/>
			</g>
		</g>
		<g>
			<g>
				<path style="fill:#263238;" d="M325.506,406.259c-0.144-0.002,0.043-20.986,0.418-46.863c0.375-25.886,0.795-46.862,0.939-46.86
					c0.144,0.002-0.043,20.982-0.418,46.868C326.07,385.28,325.649,406.261,325.506,406.259z"/>
			</g>
		</g>
		<g>
			<g>
				<path style="fill:#F5F5F5;" d="M380.379,271.254c0.096,0.108-6.354,5.997-14.405,13.152
					c-8.053,7.158-14.656,12.872-14.752,12.765c-0.096-0.108,6.353-5.996,14.406-13.154
					C373.679,276.861,380.284,271.146,380.379,271.254z"/>
			</g>
		</g>
		<g>
			<g>
				<path style="fill:#F5F5F5;" d="M377.206,282.586c0.024,0.027-0.331,0.386-0.993,1.013c-0.662,0.627-1.635,1.517-2.85,2.604
					c-2.429,2.173-5.836,5.119-9.676,8.28c-3.842,3.161-7.388,5.939-9.988,7.905c-1.3,0.983-2.36,1.767-3.103,2.296
					c-0.742,0.53-1.163,0.809-1.184,0.78c-0.022-0.029,0.357-0.362,1.061-0.941c0.785-0.635,1.793-1.45,3-2.426
					c2.54-2.039,6.046-4.859,9.883-8.016c3.835-3.158,7.276-6.056,9.765-8.156c1.19-0.997,2.183-1.829,2.957-2.478
					C376.782,282.867,377.182,282.559,377.206,282.586z"/>
			</g>
		</g>
		<g>
			<g>
				<path style="fill:#F5F5F5;" d="M295.849,272.497c0.081,0.119-9.331,6.684-21.019,14.662
					c-11.692,7.981-21.233,14.352-21.315,14.233c-0.081-0.119,9.329-6.683,21.021-14.664
					C286.225,278.751,295.768,272.378,295.849,272.497z"/>
			</g>
		</g>
		<g>
			<g>
				<path style="fill:#F5F5F5;" d="M304.61,272.099c0.021,0.029-0.411,0.387-1.212,1.01c-0.878,0.673-2.025,1.552-3.407,2.611
					c-2.946,2.26-6.882,5.28-11.232,8.618c-4.311,3.39-8.211,6.457-11.13,8.752c-1.368,1.077-2.503,1.971-3.372,2.655
					c-0.801,0.621-1.255,0.952-1.278,0.924c-0.023-0.028,0.387-0.411,1.149-1.08c0.761-0.67,1.878-1.622,3.269-2.785
					c2.782-2.326,6.673-5.482,11.043-8.878c4.37-3.393,8.39-6.382,11.332-8.502c1.471-1.06,2.669-1.907,3.507-2.478
					C304.116,272.373,304.589,272.07,304.61,272.099z"/>
			</g>
		</g>
		<g>
			<g>
				<path style="fill:#F5F5F5;" d="M163.417,300.87c0.001,0.009-0.091,0.029-0.272,0.059c-0.211,0.032-0.476,0.072-0.805,0.122
					c-0.747,0.101-1.784,0.24-3.099,0.417c-2.69,0.37-6.579,0.926-11.363,1.742c-9.565,1.63-22.705,4.422-36.855,8.793
					c-7.079,2.174-13.733,4.531-19.712,6.859c-5.978,2.328-11.31,4.573-15.542,6.935c-4.245,2.339-7.344,4.783-9.303,6.648
					c-0.504,0.453-0.915,0.892-1.279,1.266c-0.37,0.368-0.665,0.697-0.898,0.967c-0.223,0.247-0.402,0.445-0.544,0.603
					c-0.125,0.134-0.193,0.2-0.2,0.195c-0.007-0.006,0.047-0.083,0.158-0.228c0.133-0.167,0.299-0.377,0.506-0.638
					c0.221-0.282,0.504-0.623,0.864-1.004c0.354-0.387,0.756-0.839,1.251-1.307c1.926-1.92,5.016-4.43,9.263-6.823
					c4.234-2.417,9.573-4.705,15.548-7.06c5.979-2.356,12.641-4.732,19.733-6.91c14.177-4.38,27.356-7.12,36.948-8.659
					c4.798-0.77,8.699-1.271,11.398-1.579c1.321-0.136,2.362-0.243,3.112-0.321c0.332-0.029,0.598-0.052,0.811-0.07
					C163.322,300.864,163.416,300.861,163.417,300.87z"/>
			</g>
		</g>
		<g>
			<g>
				<path style="fill:#F5F5F5;" d="M412.482,248.786c-0.002,0.009-0.142-0.008-0.414-0.05c-0.295-0.049-0.694-0.115-1.204-0.199
					c-1.084-0.188-2.637-0.456-4.623-0.799c-4.017-0.675-9.841-1.598-17.071-2.47c-14.44-1.742-34.613-3.187-56.778-1.438
					c-22.174,1.741-41.892,6.159-56.022,9.622c-7.07,1.754-12.763,3.287-16.692,4.364c-1.945,0.531-3.465,0.946-4.526,1.236
					c-0.5,0.132-0.891,0.235-1.18,0.311c-0.267,0.067-0.404,0.097-0.407,0.089s0.13-0.056,0.392-0.14
					c0.286-0.088,0.672-0.208,1.166-0.361c1.055-0.312,2.567-0.758,4.5-1.33c3.913-1.137,9.594-2.725,16.657-4.526
					c14.116-3.557,33.85-8.039,56.071-9.784c22.213-1.753,42.42-0.245,56.864,1.592c7.233,0.92,13.052,1.899,17.061,2.636
					c2.006,0.36,3.555,0.689,4.607,0.896c0.506,0.106,0.902,0.188,1.195,0.25C412.346,248.742,412.483,248.777,412.482,248.786z"/>
			</g>
		</g>
		<g>
			<g>
				<path style="fill:#F5F5F5;" d="M244.608,305.991c-0.008,0.04-0.469-0.029-1.303-0.133c-0.834-0.104-2.04-0.247-3.537-0.32
					c-2.976-0.137-7.187-0.055-11.558,1.234c-2.174,0.656-4.132,1.638-5.682,2.834c-1.548,1.2-2.677,2.602-3.401,3.892
					c-1.473,2.613-1.357,4.589-1.477,4.557c-0.018-0.001-0.028-0.117-0.03-0.341c-0.01-0.224,0.015-0.553,0.061-0.976
					c0.105-0.842,0.412-2.06,1.123-3.417c0.705-1.354,1.84-2.829,3.427-4.093c1.588-1.26,3.601-2.284,5.826-2.955
					c4.472-1.317,8.731-1.335,11.734-1.103c1.509,0.121,2.718,0.322,3.546,0.488C244.166,305.825,244.614,305.961,244.608,305.991z"
					/>
			</g>
		</g>
		<g>
			<g>
				<path style="fill:#F5F5F5;" d="M317.92,319.573c0.009,0.144-14.539,1.127-32.489,2.196c-17.956,1.07-32.515,1.82-32.523,1.677
					c-0.009-0.143,14.536-1.127,32.492-2.197C303.35,320.181,317.912,319.43,317.92,319.573z"/>
			</g>
		</g>
		<g>
			<g>
				<path style="fill:#F5F5F5;" d="M154.316,331.647c-0.003,0.009-0.088-0.004-0.253-0.037c-0.194-0.042-0.434-0.094-0.729-0.158
					c-0.644-0.121-1.567-0.415-2.796-0.603c-2.432-0.496-6.011-0.952-10.447-1.04c-4.429-0.058-9.742,0.252-15.466,1.54
					c-5.704,1.257-11.911,3.378-17.541,7.12c-5.63,3.747-10.046,8.601-13.363,13.407c-3.279,4.856-5.474,9.717-6.8,13.943
					c-1.322,4.233-1.942,7.792-2.176,10.262c-0.182,1.23-0.174,2.198-0.246,2.849c-0.026,0.301-0.046,0.545-0.063,0.743
					c-0.017,0.167-0.03,0.253-0.039,0.253c-0.009,0-0.014-0.086-0.014-0.254c0.003-0.199,0.007-0.444,0.012-0.746
					c0.038-0.654-0.002-1.627,0.149-2.865c0.173-2.486,0.74-6.075,2.026-10.352c1.29-4.27,3.468-9.188,6.755-14.103
					c3.327-4.866,7.771-9.776,13.471-13.571c5.706-3.792,11.975-5.915,17.728-7.156c5.772-1.271,11.122-1.544,15.576-1.439
					c4.46,0.135,8.05,0.65,10.479,1.209c1.228,0.219,2.146,0.546,2.783,0.7c0.29,0.084,0.526,0.152,0.716,0.208
					C154.238,331.609,154.319,331.638,154.316,331.647z"/>
			</g>
		</g>
	</g>
</g>
<g id="Character">
	<g>
		<g>
			<g>
				<g>
					<path style="fill:#FFBE9D;" d="M521.237,262.056l-12.286,26.022l-6.601,4.101c-0.719,0.25-1.323,0.753-1.7,1.415l-2.123,5.371
						l6.372,0.863l1.303-2.715c0,0,4.191,1.654,7.156-2.003l18.773-29.146L521.237,262.056z"/>
				</g>
			</g>
			<g>
				<path style="fill:#FFBE9D;" d="M497.669,297.751c0,0,4.135,9.595,5.36,9.245c1.225-0.35,1.692-1.109,1.4-1.809
					c-0.292-0.7-2.626-5.602-2.626-5.602s2.39,4.61,3.208,4.727c0.819,0.117,1.619-0.495,1.402-1.167
					c-0.217-0.672-2.042-4.61-2.042-4.61s2.042,4.395,2.684,4.123c0.642-0.272,1.167-0.038,1.05-1.03
					c-0.117-0.992-2.432-4.866-2.432-4.866l-6.904-0.386L497.669,297.751z"/>
			</g>
			<g>
				<path style="fill:#263238;" d="M534.22,429.692l-0.097-0.019c-3.899-0.73-13.542-3.311-18.841-11.453
					c-3.535-5.433-3.791-12.647-3.996-18.444c-0.797-22.412-2.253-78.38-2.681-95c-0.102-3.927-3.262-7.004-7.194-7.004
					c-3.968,0-7.196,3.229-7.196,7.196v10.176h-2v-10.176c0-5.071,4.125-9.196,9.196-9.196c5.025,0,9.063,3.933,9.194,8.952
					c0.427,16.618,1.883,72.577,2.679,94.982c0.197,5.55,0.442,12.456,3.674,17.424c3.37,5.178,9.885,9.121,17.438,10.561
					l52.641-0.498c6.834-1.407,12.014-3.548,16.673-9.784c2.458-3.291,4.242-7.684,5.614-13.823
					c2.876-12.876,2.789-26.494,2.704-39.663c-0.06-9.274-0.121-18.864,0.839-28.207c0.454-4.417,1.194-9.021,3.519-12.77
					c2.213-3.568,6.627-6.67,11.102-5.038l-0.685,1.879c-3.263-1.189-6.858,1.218-8.718,4.214c-2.11,3.404-2.799,7.74-3.228,11.92
					c-0.949,9.233-0.888,18.767-0.829,27.988c0.085,13.281,0.174,27.015-2.753,40.112c-1.435,6.426-3.33,11.06-5.964,14.585
					c-5.06,6.772-10.626,9.065-17.968,10.565l-0.19,0.021L534.22,429.692z"/>
			</g>
			<g>
				<g>
					<path style="fill:#FFBE9D;" d="M505.617,294.7c-0.688,2.779-1.105,5.625-1.243,8.484c-0.018,0.367,0.005,0.806,0.319,0.998
						c0.369,0.225,0.778-0.353,1.061-0.679c0.509-0.586,2.404-3.836,2.404-3.836c2.908-0.34,4.848-2.626,4.909-5.247"/>
				</g>
				<g>
					<g>
						<path style="fill:#EB996E;" d="M513.066,294.421c0.019,0,0.039,0.206,0.016,0.589c-0.028,0.381-0.125,0.942-0.406,1.596
							c-0.276,0.653-0.766,1.39-1.528,2.012c-0.755,0.624-1.793,1.094-2.967,1.244l0.146-0.096
							c-0.602,1.036-1.259,2.164-2.011,3.314c-0.117,0.171-0.225,0.337-0.363,0.507c-0.131,0.157-0.251,0.306-0.398,0.462
							c-0.15,0.145-0.301,0.319-0.595,0.381c-0.336,0.048-0.569-0.197-0.667-0.404c-0.194-0.45-0.105-0.85-0.096-1.208
							c0.028-0.367,0.055-0.726,0.081-1.078c0.125-1.402,0.307-2.658,0.502-3.703c0.192-1.046,0.395-1.883,0.548-2.457
							c0.154-0.574,0.264-0.885,0.29-0.878c0.03,0.007-0.027,0.331-0.133,0.914c-0.105,0.583-0.263,1.424-0.416,2.47
							c-0.156,1.045-0.308,2.294-0.411,3.686c-0.022,0.349-0.044,0.706-0.066,1.07c-0.015,0.364-0.06,0.747,0.066,1.008
							c0.061,0.124,0.173,0.2,0.236,0.178c0.094-0.012,0.241-0.13,0.362-0.261c0.124-0.131,0.253-0.291,0.377-0.441
							c0.114-0.14,0.227-0.31,0.338-0.474c0.739-1.129,1.406-2.258,2.018-3.281l0.051-0.085l0.096-0.011
							c1.104-0.128,2.08-0.547,2.806-1.115c0.731-0.566,1.221-1.244,1.515-1.855C513.048,295.268,512.991,294.408,513.066,294.421z"
							/>
					</g>
				</g>
			</g>
		</g>
		<g>
			<g>
				<g>
					<g>
						<g>
							<g>
								<g>
									<path style="fill:#E8505B;" d="M588.251,422.751l1.291,5.422c0,0,8.868,11.518,11.603,10.955
										c1.793-0.369-0.41-3.374-3.783-12.123l-0.708-3.613L588.251,422.751z"/>
								</g>
							</g>
						</g>
					</g>
					<g>
						<g>
							<g>
								<g>
									<g>
										<path style="fill:#263238;" d="M601.506,437.427c0,0-0.009,0.063-0.07,0.163c-0.061,0.098-0.174,0.24-0.372,0.348
											c-0.194,0.111-0.469,0.189-0.789,0.173c-0.323-0.016-0.671-0.152-1.004-0.368c-1.256-0.955-2.813-2.446-4.469-4.166
											c-1.647-1.728-3.016-3.402-3.964-4.644c-0.472-0.623-0.843-1.135-1.092-1.494c-0.099-0.147-0.192-0.284-0.282-0.417
											c-0.063-0.096-0.094-0.149-0.089-0.152c0.005-0.003,0.045,0.042,0.117,0.132c0.098,0.126,0.199,0.257,0.308,0.397
											c0.332,0.426,0.708,0.91,1.134,1.458c0.971,1.22,2.351,2.877,3.993,4.6c1.645,1.71,3.203,3.225,4.41,4.183
											c0.63,0.461,1.321,0.447,1.694,0.238C601.418,437.68,601.488,437.409,601.506,437.427z"/>
									</g>
								</g>
							</g>
						</g>
					</g>
					<g>
						<g>
							<g>
								<g>
									<g>
										<path style="fill:#263238;" d="M600.25,433.724c-0.005,0.03-0.28-0.025-0.717,0.037c-0.435,0.058-1.024,0.25-1.596,0.605
											c-0.579,0.347-0.992,0.807-1.197,1.195c-0.21,0.387-0.267,0.663-0.297,0.655c-0.017-0.002-0.003-0.29,0.187-0.711
											c0.184-0.422,0.615-0.929,1.216-1.288c0.594-0.368,1.217-0.551,1.675-0.579
											C599.981,433.606,600.257,433.708,600.25,433.724z"/>
									</g>
								</g>
							</g>
						</g>
					</g>
					<g>
						<g>
							<g>
								<g>
									<g>
										<path style="fill:#263238;" d="M591.855,431.021c-0.03-0.008,0.093-0.389,0.164-1.017c0.078-0.625,0-1.518-0.445-2.376
											c-0.433-0.858-1.135-1.435-1.694-1.711c-0.564-0.284-0.968-0.316-0.961-0.35c0.001-0.01,0.101-0.011,0.281,0.015
											c0.179,0.027,0.436,0.091,0.734,0.224c0.594,0.257,1.344,0.845,1.797,1.743c0.463,0.889,0.525,1.836,0.412,2.47
											c-0.05,0.32-0.12,0.572-0.177,0.743C591.907,430.934,591.866,431.025,591.855,431.021z"/>
									</g>
								</g>
							</g>
						</g>
					</g>
					<g>
						<g>
							<g>
								<g>
									<g>
										<path style="fill:#263238;" d="M588.816,423.671c0.048-0.018,0.325,0.735,0.491,1.699
											c0.162,0.962,0.336,1.722,0.297,1.737c-0.052,0.019-0.308-0.743-0.469-1.704
											C588.97,424.444,588.773,423.686,588.816,423.671z"/>
									</g>
								</g>
							</g>
						</g>
					</g>
					<g>
						<g>
							<g>
								<g>
									<g>
										<path style="fill:#263238;" d="M597.519,427.77c-0.004,0.052-0.506,0.036-1.099,0.176
											c-0.595,0.134-1.039,0.368-1.065,0.323c-0.026-0.036,0.4-0.351,1.026-0.493
											C597.006,427.63,597.527,427.726,597.519,427.77z"/>
									</g>
								</g>
							</g>
						</g>
					</g>
					<g>
						<g>
							<g>
								<g>
									<g>
										<path style="fill:#263238;" d="M597.701,428.699c-0.008,0.051-0.427,0.007-0.92,0.128
											c-0.494,0.114-0.849,0.342-0.879,0.299c-0.031-0.032,0.304-0.344,0.839-0.469
											C597.275,428.528,597.715,428.656,597.701,428.699z"/>
									</g>
								</g>
							</g>
						</g>
					</g>
					<g>
						<g>
							<g>
								<g>
									<g>
										<path style="fill:#263238;" d="M598.409,429.865c-0.015,0.049-0.442-0.088-0.956,0.035
											c-0.516,0.112-0.842,0.419-0.877,0.382c-0.041-0.022,0.263-0.424,0.838-0.551
											C597.988,429.595,598.437,429.827,598.409,429.865z"/>
									</g>
								</g>
							</g>
						</g>
					</g>
					<g>
						<g>
							<g>
								<g>
									<g>
										<path style="fill:#263238;" d="M596.909,427.381c-0.002,0.011-0.109,0.003-0.297-0.033
											c-0.189-0.036-0.46-0.101-0.786-0.212c-0.325-0.112-0.706-0.27-1.105-0.491c-0.2-0.111-0.403-0.235-0.609-0.378
											c-0.194-0.152-0.439-0.344-0.443-0.682c0.021-0.359,0.421-0.499,0.677-0.424c0.275,0.07,0.457,0.26,0.618,0.414
											c0.325,0.318,0.597,0.623,0.815,0.888c0.218,0.265,0.38,0.49,0.487,0.649c0.106,0.159,0.158,0.253,0.148,0.259
											c-0.022,0.016-0.275-0.323-0.729-0.828c-0.227-0.253-0.506-0.545-0.832-0.853c-0.162-0.152-0.334-0.314-0.545-0.363
											c-0.201-0.051-0.461,0.057-0.464,0.267c-0.007,0.204,0.189,0.401,0.369,0.534c0.196,0.139,0.395,0.265,0.588,0.377
											c0.386,0.224,0.753,0.391,1.068,0.515C596.5,427.266,596.915,427.353,596.909,427.381z"/>
									</g>
								</g>
							</g>
						</g>
					</g>
					<g>
						<g>
							<g>
								<g>
									<g>
										<path style="fill:#263238;" d="M596.443,427.269c-0.012-0.001-0.015-0.098-0.01-0.271
											c0.006-0.174,0.017-0.426,0.056-0.737c0.041-0.31,0.109-0.684,0.279-1.071c0.088-0.193,0.192-0.387,0.349-0.568
											c0.141-0.163,0.417-0.377,0.71-0.224c0.274,0.172,0.269,0.487,0.246,0.707c-0.037,0.235-0.107,0.444-0.194,0.637
											c-0.174,0.386-0.416,0.684-0.633,0.91c-0.221,0.225-0.422,0.381-0.565,0.482
											C596.536,427.233,596.449,427.277,596.443,427.269c-0.019-0.024,0.301-0.245,0.711-0.701
											c0.199-0.231,0.421-0.524,0.577-0.892c0.078-0.182,0.141-0.387,0.172-0.593c0.025-0.2-0.003-0.447-0.16-0.533
											c-0.161-0.095-0.363,0.033-0.499,0.186c-0.138,0.154-0.245,0.343-0.33,0.521c-0.169,0.362-0.247,0.721-0.303,1.023
											C596.51,426.887,596.472,427.272,596.443,427.269z"/>
									</g>
								</g>
							</g>
						</g>
					</g>
					<g style="opacity:0.4;">
						<g>
							<g>
								<g>
									<path d="M589.542,428.173l-0.625-2.606c0,0,2.173,0.402,2.737,2.029c0.564,1.626,0.423,2.784,0.423,2.784l4.724,5.087
										c0,0,1.185-2.316,3.332-1.759c0,0,1.688,3.714,1.636,4.645c-0.057,1.023-1.135,0.818-1.519,0.643
										c-0.174-0.079-2.215-1.247-4.23-3.337C593.518,433.061,590.754,429.769,589.542,428.173z"/>
								</g>
							</g>
						</g>
					</g>
				</g>
				<g>
					<g>
						<g>
							<g>
								<g>
									<g>
										<g>
											<g>
												<path style="fill:#E8505B;" d="M544.166,425.491l-0.041-7.231l13.545-0.164l0.173,10.579l-0.839,0.064
													c-3.735,0.253-19.01,1.022-21.518,0.295C532.689,428.222,544.166,425.491,544.166,425.491z"/>
											</g>
										</g>
									</g>
								</g>
							</g>
							<g style="opacity:0.4;">
								<g>
									<g>
										<g>
											<g>
												<path d="M552.93,428.628c0.179-1.134,0.796-2.193,1.693-2.909c0.898-0.716,2.009-1.101,3.154-1.023l0.049,3.786
													L552.93,428.628z"/>
											</g>
										</g>
									</g>
								</g>
							</g>
						</g>
						<g>
							<g>
								<g style="opacity:0.4;">
									<g>
										<g>
											<path d="M538.56,427.026c0,0-4.02,1.212-3.508,1.871c0.511,0.658,15.976,0.461,22.79-0.222l-0.025-0.302l-18.037,0.383
												C539.78,428.755,539.349,427.049,538.56,427.026z"/>
										</g>
									</g>
								</g>
							</g>
						</g>
						<g>
							<g>
								<g>
									<g>
										<g>
											<g>
												<path style="fill:#263238;" d="M558.03,428.361c0,0.006-0.08,0.015-0.233,0.028c-0.201,0.015-0.42,0.031-0.668,0.049
													c-0.669,0.037-1.491,0.083-2.461,0.137c-2.078,0.101-4.952,0.203-8.126,0.246c-3.176,0.042-6.051,0.018-8.131-0.027
													c-0.971-0.028-1.794-0.052-2.463-0.071c-0.248-0.012-0.468-0.022-0.669-0.031c-0.153-0.009-0.233-0.016-0.233-0.022
													c0-0.006,0.081-0.009,0.234-0.011c0.201,0,0.421,0,0.67,0c0.669,0.005,1.492,0.012,2.463,0.019
													c2.08,0.015,4.954,0.021,8.128-0.021c3.173-0.043,6.045-0.127,8.124-0.198c0.971-0.034,1.793-0.062,2.462-0.085
													c0.249-0.007,0.469-0.013,0.67-0.018C557.949,428.354,558.029,428.355,558.03,428.361z"/>
											</g>
										</g>
									</g>
								</g>
							</g>
						</g>
						<g>
							<g>
								<g>
									<g>
										<g>
											<g>
												<path style="fill:#263238;" d="M539.786,428.966c-0.05,0.007-0.096-0.581-0.475-1.169
													c-0.369-0.595-0.879-0.89-0.851-0.932c0.009-0.041,0.593,0.207,0.99,0.844
													C539.855,428.341,539.827,428.975,539.786,428.966z"/>
											</g>
										</g>
									</g>
								</g>
							</g>
						</g>
						<g>
							<g>
								<g>
									<g>
										<g>
											<g>
												<path style="fill:#263238;" d="M543.757,426.887c-0.038,0.025-0.232-0.205-0.434-0.514
													c-0.202-0.309-0.334-0.579-0.296-0.604c0.038-0.025,0.232,0.206,0.434,0.514
													C543.662,426.592,543.795,426.862,543.757,426.887z"/>
											</g>
										</g>
									</g>
								</g>
							</g>
						</g>
						<g>
							<g>
								<g>
									<g>
										<g>
											<g>
												<path style="fill:#263238;" d="M544.847,426.293c-0.03,0.034-0.246-0.106-0.482-0.313
													c-0.236-0.207-0.403-0.402-0.373-0.436c0.03-0.034,0.245,0.106,0.481,0.312
													C544.709,426.064,544.876,426.259,544.847,426.293z"/>
											</g>
										</g>
									</g>
								</g>
							</g>
						</g>
						<g>
							<g>
								<g>
									<g>
										<g>
											<g>
												<path style="fill:#263238;" d="M545.523,425.006c0.001,0.045-0.315,0.09-0.705,0.099
													c-0.391,0.009-0.708-0.02-0.71-0.065c-0.001-0.045,0.315-0.09,0.706-0.099
													C545.205,424.932,545.523,424.961,545.523,425.006z"/>
											</g>
										</g>
									</g>
								</g>
							</g>
						</g>
						<g>
							<g>
								<g>
									<g>
										<g>
											<g>
												<path style="fill:#263238;" d="M545.75,424.101c0.016,0.04-0.327,0.2-0.786,0.239c-0.459,0.042-0.824-0.056-0.816-0.098
													c0.007-0.047,0.366-0.025,0.801-0.065C545.386,424.141,545.735,424.056,545.75,424.101z"/>
											</g>
										</g>
									</g>
								</g>
							</g>
						</g>
						<g>
							<g>
								<g>
									<g>
										<g>
											<g>
												<path style="fill:#263238;" d="M543.283,425.711c0.001,0.018-0.332,0.064-0.871,0.006
													c-0.268-0.029-0.586-0.088-0.929-0.192c-0.17-0.058-0.349-0.101-0.533-0.212c-0.087-0.056-0.183-0.136-0.219-0.267
													c-0.037-0.13,0.03-0.277,0.128-0.35c0.827-0.442,1.666,0.016,1.98,0.442c0.173,0.218,0.253,0.43,0.291,0.577
													c0.037,0.149,0.035,0.234,0.026,0.235c-0.031,0.012-0.063-0.342-0.406-0.737c-0.169-0.194-0.424-0.381-0.75-0.474
													c-0.308-0.087-0.746-0.106-1.036,0.084c-0.137,0.104-0.081,0.266,0.074,0.356c0.144,0.091,0.33,0.145,0.492,0.203
													c0.331,0.109,0.639,0.179,0.899,0.222C542.95,425.688,543.283,425.685,543.283,425.711z"/>
											</g>
										</g>
									</g>
								</g>
							</g>
						</g>
						<g>
							<g>
								<g>
									<g>
										<g>
											<g>
												<path style="fill:#263238;" d="M543.058,425.757c-0.012,0.01-0.144-0.211-0.108-0.603
													c0.019-0.192,0.086-0.421,0.23-0.639c0.151-0.195,0.345-0.464,0.719-0.453c0.202,0.023,0.303,0.252,0.273,0.398
													c-0.014,0.153-0.081,0.284-0.143,0.391c-0.127,0.219-0.271,0.397-0.404,0.532c-0.27,0.27-0.484,0.375-0.494,0.359
													c-0.016-0.021,0.172-0.159,0.408-0.437c0.117-0.139,0.245-0.316,0.358-0.527c0.117-0.185,0.195-0.517-0.024-0.554
													c-0.218-0.018-0.438,0.201-0.569,0.377c-0.134,0.19-0.208,0.394-0.239,0.569
													C543.003,425.526,543.087,425.75,543.058,425.757z"/>
											</g>
										</g>
									</g>
								</g>
							</g>
						</g>
						<g>
							<g>
								<g>
									<g>
										<g>
											<g>
												<path style="fill:#263238;" d="M557.706,424.658c-0.003,0.031-0.388-0.032-1,0.048
													c-0.605,0.075-1.446,0.335-2.172,0.928c-0.725,0.594-1.146,1.367-1.34,1.945c-0.199,0.583-0.214,0.974-0.245,0.97
													c-0.01-0.001-0.016-0.098-0.004-0.273c0.012-0.175,0.05-0.429,0.138-0.732c0.17-0.603,0.59-1.417,1.347-2.037
													c0.757-0.618,1.638-0.869,2.263-0.916c0.315-0.026,0.571-0.014,0.745,0.01
													C557.613,424.623,557.707,424.648,557.706,424.658z"/>
											</g>
										</g>
									</g>
								</g>
							</g>
						</g>
						<g>
							<g>
								<g>
									<g>
										<g>
											<g>
												<path style="fill:#263238;" d="M556.23,419.039c0.045-0.001,0.114,1.244,0.153,2.781
													c0.039,1.537,0.034,2.784-0.011,2.785c-0.045,0.001-0.114-1.244-0.153-2.781
													C556.18,420.288,556.185,419.041,556.23,419.039z"/>
											</g>
										</g>
									</g>
								</g>
							</g>
						</g>
						<g>
							<g>
								<g>
									<g>
										<g>
											<g>
												<path style="fill:#263238;" d="M551.209,427.329c0.006,0.042-0.874,0.198-1.975,0.221
													c-1.101,0.026-1.987-0.091-1.983-0.134c0.004-0.048,0.889-0.005,1.979-0.031
													C550.32,427.363,551.203,427.281,551.209,427.329z"/>
											</g>
										</g>
									</g>
								</g>
							</g>
						</g>
						<g>
							<g>
								<g>
									<g>
										<g>
											<g>
												<path style="fill:#263238;" d="M553.863,427.291c0.033,0.033-0.07,0.188-0.158,0.392
													c-0.091,0.203-0.135,0.385-0.182,0.382c-0.044,0-0.073-0.213,0.031-0.448
													C553.657,427.382,553.834,427.258,553.863,427.291z"/>
											</g>
										</g>
									</g>
								</g>
							</g>
						</g>
						<g>
							<g>
								<g>
									<g>
										<g>
											<g>
												<path style="fill:#263238;" d="M554.848,426.033c0.033,0.031-0.053,0.174-0.191,0.317s-0.277,0.235-0.31,0.203
													c-0.033-0.031,0.053-0.173,0.191-0.317C554.677,426.093,554.815,426.002,554.848,426.033z"/>
											</g>
										</g>
									</g>
								</g>
							</g>
						</g>
						<g>
							<g>
								<g>
									<g>
										<g>
											<g>
												<path style="fill:#263238;" d="M556.272,425.446c-0.009,0.046-0.189,0.047-0.387,0.119c-0.2,0.068-0.34,0.18-0.376,0.15
													c-0.037-0.024,0.075-0.219,0.321-0.305C556.077,425.323,556.285,425.404,556.272,425.446z"/>
											</g>
										</g>
									</g>
								</g>
							</g>
						</g>
						<g>
							<g>
								<g>
									<g>
										<g>
											<g>
												<path style="fill:#263238;" d="M557.288,425.165c0.017,0.042-0.06,0.113-0.172,0.158
													c-0.112,0.045-0.216,0.047-0.233,0.005c-0.017-0.042,0.06-0.113,0.172-0.158
													C557.167,425.125,557.271,425.123,557.288,425.165z"/>
											</g>
										</g>
									</g>
								</g>
							</g>
						</g>
					</g>
				</g>
				<g>
					<g>
						<g>
							<polygon style="fill:#455A64;" points="599.996,423.814 575.858,281.873 538.624,287.544 542.944,422.751 560.181,424.22 
								558.862,305.192 585.386,424.351 							"/>
						</g>
					</g>
				</g>
				<g>
					<g>
						<g>
							<g>
								<g>
									<g>
										<path style="fill:#263238;" d="M579.621,292.459l-4.939-41.863l7.47,11.67l11.936-10.326l-13.962-18.875l-0.001,0.003
											c-2.568-2.666-5.575-4.637-9.173-5.939c-1.748-0.632-3.603-1.011-5.749-1.101l0,0c-4.629,1.43-9.257,1.433-13.885,0.008
											c-0.784,0.098-1.992,0.203-3.58,0.42c-5.411,0.737-10.302,3.624-13.55,8.014l-14.365,27.586l12.312,4.66l6.491-11.701
											l-1.21,38.837l11.59,2.523l8.84-6.386l12.198,6.386L579.621,292.459z"/>
									</g>
								</g>
							</g>
						</g>
						<g>
							<g>
								<g>
									<g>
										<path style="fill:#455A64;" d="M539.26,240.355c0.135,0.005,0.003,6.465-0.295,14.428
											c-0.298,7.965-0.648,14.416-0.783,14.411c-0.135-0.005-0.003-6.464,0.295-14.429
											C538.775,246.802,539.126,240.35,539.26,240.355z"/>
									</g>
								</g>
							</g>
						</g>
						<g>
							<g>
								<g>
									<g>
										<path style="fill:#455A64;" d="M573.841,242.902c0.134-0.013,0.605,3.723,1.052,8.343c0.447,4.622,0.7,8.378,0.566,8.391
											c-0.134,0.013-0.605-3.722-1.052-8.344C573.961,246.672,573.707,242.915,573.841,242.902z"/>
									</g>
								</g>
							</g>
						</g>
					</g>
				</g>
			</g>
			<g>
				<g>
					<g>
						<path style="fill:#263238;" d="M554.449,190.73c1.915-0.442,3.859-0.886,5.823-0.801c1.964,0.086,3.984,0.769,5.275,2.252
							c0.797,0.915,1.292,2.098,2.244,2.85c1.184,0.936,3.076,1.254,3.477,2.709c0.412,1.495-1.18,2.895-1.072,4.443
							c0.062,0.885,0.664,1.621,1.165,2.352c0.502,0.731,0.938,1.646,0.63,2.477c-0.249,0.672-0.922,1.099-1.252,1.735
							c-0.509,0.979-0.098,2.175-0.256,3.267c-0.232,1.601-1.704,2.796-3.268,3.211c-1.564,0.415-3.217,0.208-4.822-0.002"/>
					</g>
				</g>
				<g>
					<g>
						<path style="fill:#263238;" d="M552.972,191.414c-1.316-0.263-2.682-0.498-3.989-0.191c-1.306,0.307-2.545,1.291-2.736,2.619
							c-0.117,0.818,0.147,1.739-0.314,2.425c-0.517,0.77-1.685,0.826-2.28,1.538c-1.276,1.525,1.178,4.173-0.101,5.696
							c-0.344,0.41-0.886,0.605-1.258,0.99c-0.637,0.659-0.614,1.786-0.082,2.532c0.532,0.746,1.465,1.134,2.38,1.183
							c0.915,0.049,1.821-0.2,2.681-0.517c2.904-1.071,5.575-3.043,6.956-5.812c1.381-2.77,1.254-6.375-0.751-8.733"/>
					</g>
				</g>
				<g>
					<g>
						<g>
							<g>
								<g>
									<g>
										<g>
											<g>
												<g>
													<g>
														<g>
															<g>
																<g>
																	<g>
																		<path style="fill:#FFBE9D;" d="M565.337,201.716l0.368,26.318l-13.173,0.267
																			c-0.234-1.518-0.717-7.431-0.717-7.431s-5.522-0.3-6.135-5.729c-0.297-2.637-0.467-8.131-0.563-13.086
																			c-0.107-5.497,4.196-10.071,9.689-10.3l0,0C560.494,191.517,565.257,196.022,565.337,201.716z"/>
																	</g>
																</g>
															</g>
														</g>
													</g>
												</g>
											</g>
										</g>
										<g>
											<g>
												<g>
													<g>
														<g>
															<g>
																<g>
																	<g>
																		<path style="fill:#EB996E;" d="M551.797,220.792c0,0,3.464-0.065,6.885-2.725c0,0-1.283,4.08-6.756,4.135
																			L551.797,220.792z"/>
																	</g>
																</g>
															</g>
														</g>
													</g>
												</g>
											</g>
										</g>
									</g>
								</g>
							</g>
							<g>
								<g>
									<g>
										<g>
											<g>
												<g>
													<g>
														<g>
															<g>
																<g>
																	<g>
																		<g>
																			<g>
																				<g>
																					<path style="fill:#263238;" d="M547.59,205.224c0.027,0.411,0.397,0.728,0.827,0.708
																						c0.429-0.02,0.757-0.369,0.73-0.78c-0.027-0.411-0.397-0.729-0.826-0.709
																						C547.891,204.463,547.564,204.812,547.59,205.224z"/>
																				</g>
																			</g>
																		</g>
																	</g>
																</g>
															</g>
														</g>
													</g>
													<g>
														<g>
															<g>
																<g>
																	<g>
																		<g>
																			<g>
																				<g>
																					<g>
																						<path style="fill:#263238;" d="M546.553,204.677c0.106,0.091,0.651-0.403,1.487-0.484
																							c0.833-0.093,1.49,0.275,1.57,0.163c0.04-0.05-0.076-0.223-0.363-0.39c-0.282-0.167-0.749-0.311-1.269-0.256
																							c-0.52,0.055-0.939,0.29-1.171,0.512C546.57,204.445,546.501,204.637,546.553,204.677z"/>
																					</g>
																				</g>
																			</g>
																		</g>
																	</g>
																</g>
															</g>
														</g>
													</g>
												</g>
												<g>
													<g>
														<g>
															<g>
																<g>
																	<g>
																		<g>
																			<g>
																				<g>
																					<path style="fill:#263238;" d="M555.982,204.725c0.027,0.411,0.397,0.728,0.827,0.708
																						c0.429-0.02,0.757-0.369,0.73-0.78c-0.027-0.411-0.397-0.729-0.827-0.709
																						C556.283,203.964,555.956,204.314,555.982,204.725z"/>
																				</g>
																			</g>
																		</g>
																	</g>
																</g>
															</g>
														</g>
													</g>
													<g>
														<g>
															<g>
																<g>
																	<g>
																		<g>
																			<g>
																				<g>
																					<g>
																						<path style="fill:#263238;" d="M554.781,204.009c0.107,0.092,0.652-0.403,1.487-0.484
																							c0.833-0.093,1.49,0.275,1.57,0.163c0.04-0.05-0.076-0.223-0.363-0.39c-0.282-0.167-0.749-0.31-1.269-0.256
																							c-0.52,0.055-0.939,0.291-1.171,0.512C554.798,203.777,554.729,203.969,554.781,204.009z"/>
																					</g>
																				</g>
																			</g>
																		</g>
																	</g>
																</g>
															</g>
														</g>
													</g>
												</g>
												<g>
													<g>
														<g>
															<g>
																<g>
																	<g>
																		<g>
																			<g>
																				<g>
																					<path style="fill:#263238;" d="M552.37,210.509c-0.001-0.048-0.529-0.086-1.381-0.109
																						c-0.216-0.001-0.422-0.023-0.472-0.165c-0.066-0.149,0-0.388,0.079-0.647c0.149-0.536,0.304-1.099,0.468-1.688
																						c0.644-2.401,1.087-4.366,0.991-4.391c-0.097-0.025-0.698,1.9-1.342,4.301
																						c-0.154,0.592-0.301,1.155-0.44,1.695c-0.056,0.251-0.168,0.539-0.027,0.848
																						c0.073,0.154,0.242,0.254,0.382,0.277c0.141,0.028,0.261,0.018,0.367,0.014
																						C551.846,210.606,552.372,210.557,552.37,210.509z"/>
																				</g>
																			</g>
																		</g>
																	</g>
																</g>
															</g>
														</g>
													</g>
												</g>
												<g>
													<g>
														<g>
															<g>
																<g>
																	<g>
																		<g>
																			<g>
																				<g>
																					<path style="fill:#263238;" d="M554.887,210.84c-0.137,0.006-0.047,0.913-0.759,1.634
																						c-0.71,0.723-1.687,0.719-1.681,0.846c-0.007,0.058,0.233,0.155,0.642,0.125
																						c0.402-0.026,0.973-0.214,1.409-0.655c0.434-0.442,0.585-0.989,0.578-1.364
																						C555.072,211.043,554.948,210.829,554.887,210.84z"/>
																				</g>
																			</g>
																		</g>
																	</g>
																</g>
															</g>
														</g>
													</g>
												</g>
											</g>
										</g>
									</g>
									<g>
										<g>
											<g>
												<g>
													<g>
														<g>
															<g>
																<g>
																	<path style="fill:#263238;" d="M554.237,200.757c0.105,0.219,0.928,0.028,1.92,0.047
																		c0.993,0,1.812,0.208,1.921-0.009c0.048-0.103-0.111-0.303-0.453-0.491c-0.339-0.188-0.865-0.346-1.46-0.352
																		c-0.595-0.005-1.124,0.142-1.467,0.323C554.353,200.456,554.19,200.653,554.237,200.757z"/>
																</g>
															</g>
														</g>
													</g>
												</g>
											</g>
										</g>
									</g>
									<g>
										<g>
											<g>
												<g>
													<g>
														<g>
															<g>
																<g>
																	<path style="fill:#263238;" d="M546.618,202.229c0.166,0.175,0.722-0.08,1.413-0.158
																		c0.688-0.103,1.291-0.001,1.406-0.213c0.049-0.102-0.062-0.283-0.336-0.437c-0.27-0.154-0.707-0.258-1.181-0.196
																		c-0.474,0.063-0.869,0.276-1.09,0.495C546.604,201.939,546.544,202.143,546.618,202.229z"/>
																</g>
															</g>
														</g>
													</g>
												</g>
											</g>
										</g>
									</g>
								</g>
							</g>
							<g>
								<g>
									<g>
										<g>
											<g>
												<g>
													<g>
														<g>
															<g>
																<path style="fill:#FFBE9D;" d="M563.913,205.98c0.089-0.049,3.624-1.48,3.878,2.249
																	c0.254,3.729-3.542,3.215-3.555,3.108C564.223,211.23,563.913,205.98,563.913,205.98z"/>
															</g>
														</g>
													</g>
												</g>
											</g>
										</g>
									</g>
								</g>
								<g>
									<g>
										<g>
											<g>
												<g>
													<g>
														<g>
															<g>
																<g>
																	<path style="fill:#EB996E;" d="M565.279,209.847c0.016-0.013,0.068,0.041,0.181,0.084
																		c0.11,0.042,0.297,0.063,0.486-0.023c0.384-0.171,0.673-0.819,0.645-1.493c-0.013-0.34-0.107-0.658-0.245-0.918
																		c-0.132-0.265-0.322-0.444-0.523-0.465c-0.2-0.032-0.333,0.096-0.371,0.204c-0.043,0.108-0.014,0.18-0.033,0.188
																		c-0.01,0.01-0.084-0.057-0.065-0.213c0.011-0.075,0.048-0.166,0.131-0.244c0.085-0.079,0.214-0.125,0.353-0.119
																		c0.289,0,0.566,0.247,0.718,0.532c0.168,0.285,0.281,0.642,0.296,1.024c0.027,0.753-0.309,1.482-0.838,1.675
																		c-0.258,0.086-0.482,0.022-0.601-0.058C565.292,209.936,565.267,209.855,565.279,209.847z"/>
																</g>
															</g>
														</g>
													</g>
												</g>
											</g>
										</g>
									</g>
								</g>
							</g>
						</g>
					</g>
				</g>
				<g>
					<g>
						<path style="fill:#263238;" d="M551.272,191.992c0.272-0.527,1.181-1.15,1.592-1.445c0.552-0.396,1.679-0.662,2.358-0.701
							c1.67-0.095,3.376-0.05,4.968,0.463c1.592,0.513,3.072,1.544,3.839,3.031c0.6,1.162,0.77,2.583,1.697,3.506
							c0.75,0.747,1.935,1.097,2.363,2.066c0.76,1.72-1.521,3.686-0.782,5.415c0.131,0.308,0.357,0.591,0.367,0.926
							c0.012,0.397-0.299,0.746-0.662,0.905c-0.364,0.159-0.773,0.167-1.17,0.171c-1.404,0.014-3.107-0.172-3.699-1.444
							c-0.544-1.171,0.175-2.741-0.623-3.755c-0.69-0.877-1.855-0.531-2.822-1.089c-0.407-0.235-0.783-0.521-1.116-0.844
							c-0.636-0.056-1.271-0.136-1.875-0.341c-0.753-0.255-1.463-0.727-1.84-1.427c-0.415-0.769-0.413-1.768-1.032-2.385
							c-0.651-0.648-1.861-0.734-2.171-1.598C550.472,192.908,550.779,192.277,551.272,191.992z"/>
					</g>
				</g>
			</g>
		</g>
		<g>
			<path style="fill:#263238;" d="M519.821,260.734l-1.16,2.27c-0.624,1.222-0.126,2.719,1.107,3.323l8.061,3.947
				c1.183,0.579,2.612,0.122,3.239-1.036l1.778-3.283L519.821,260.734z"/>
		</g>
		<g>
			<g>
				<g>
					<path style="fill:#FFBE9D;" d="M602.116,229.143l-7.347,1.81c0,0-0.309-1.443-0.407-1.898
						c-0.346-1.618,0.016-2.497,0.167-2.816c0.079-0.166,0.096-0.486,0.096-0.486c-0.047-0.576-1.381-3.271-1.867-4.26
						c-0.582-1.186,0.012-1.972,0.376-1.511c0.669,0.846,2.702,4.628,3.184,4.922c0.483,0.294-0.121-1.734-0.121-1.734
						c-1.428-4.302-1.823-4.896-1.066-5.201c0.867-0.349,3.016,6.052,3.016,6.052s-0.295-0.896,0.376-1.206
						c0.671-0.31,1.156,0.54,1.156,0.54c-0.17-0.453,0.485-0.645,0.485-0.645C601.874,222.645,602.116,229.143,602.116,229.143
						l-7.347,1.81l0.801,25.494l-2.685-2.869l-9.007,7.402l9.004,8.234c1.902,1.6,4.437,2.232,6.868,1.711l0,0
						c4.068-0.871,6.802-4.698,6.308-8.828L602.116,229.143z"/>
				</g>
			</g>
			<g>
				<g>
					<g>
						<path style="fill:#EB996E;" d="M596.296,230.232c-0.036-0.029,0.296-0.448,0.709-1.193c0.206-0.373,0.428-0.829,0.625-1.354
							c0.099-0.262,0.192-0.542,0.272-0.836c0.073-0.293,0.185-0.612,0.111-0.86c-0.044-0.146-0.15-0.258-0.27-0.269
							c-0.124-0.018-0.276,0.054-0.411,0.145c-0.282,0.193-0.531,0.416-0.742,0.642c-0.423,0.456-0.692,0.935-0.859,1.319
							l-0.062,0.142l-0.088-0.121c-0.363-0.499-0.755-0.606-0.731-0.645c-0.006-0.02,0.425,0.022,0.869,0.541l-0.15,0.021
							c0.142-0.411,0.399-0.929,0.832-1.425c0.217-0.247,0.473-0.486,0.776-0.701c0.155-0.102,0.347-0.22,0.6-0.196
							c0.26,0.028,0.444,0.249,0.505,0.465c0.102,0.402-0.046,0.72-0.115,1.018c-0.087,0.302-0.188,0.588-0.296,0.855
							c-0.216,0.535-0.463,0.994-0.696,1.361C596.709,229.877,596.319,230.253,596.296,230.232z"/>
					</g>
				</g>
			</g>
			<g>
				<g>
					<g>
						<path style="fill:#EB996E;" d="M598.313,224.433c0.039-0.002,0.126,0.522,0.236,1.369c0.054,0.456,0.114,0.954,0.178,1.488
							c0.036,0.273,0.047,0.592,0.127,0.851c0.064,0.255,0.333,0.44,0.503,0.301c0.181-0.144,0.22-0.48,0.249-0.775
							c0.031-0.301,0.047-0.595,0.058-0.876c0.021-0.561,0.021-1.07,0.026-1.497c0.006-0.856,0.044-1.387,0.084-1.386
							c0.038,0.001,0.07,0.528,0.115,1.382c0.02,0.428,0.042,0.938,0.035,1.508c-0.004,0.285-0.014,0.585-0.042,0.896
							c-0.042,0.294-0.021,0.679-0.357,0.976c-0.179,0.143-0.451,0.122-0.612,0.006c-0.171-0.107-0.274-0.288-0.323-0.451
							c-0.095-0.334-0.089-0.616-0.121-0.903c-0.042-0.539-0.082-1.042-0.118-1.503
							C598.291,224.964,598.274,224.435,598.313,224.433z"/>
					</g>
				</g>
			</g>
			<g>
				<g>
					<g>
						<path style="fill:#EB996E;" d="M599.892,226.089c0.046,0.006-0.011,0.323,0.107,0.797c0.063,0.219,0.164,0.541,0.362,0.71
							c0.107,0.073,0.168,0.065,0.24-0.053c0.064-0.122,0.111-0.326,0.162-0.502c0.398-1.477,0.257-2.74,0.342-2.745
							c0.068-0.023,0.344,1.274-0.069,2.817c-0.058,0.193-0.089,0.365-0.195,0.568c-0.053,0.096-0.16,0.205-0.3,0.225
							c-0.141,0.024-0.265-0.041-0.343-0.107c-0.161-0.138-0.228-0.309-0.284-0.451c-0.055-0.148-0.09-0.29-0.11-0.421
							C599.728,226.394,599.863,226.079,599.892,226.089z"/>
					</g>
				</g>
			</g>
		</g>
		<g>
			<path style="fill:#263238;" d="M594.088,251.269l-12.937,10.787l0.202,0.221c1.499,1.641,4.034,1.783,5.707,0.321l7.156-6.254
				c1.234-1.079,1.44-2.921,0.475-4.246L594.088,251.269z"/>
		</g>
		<g>
			<path style="fill:#263238;" d="M550.475,226.363l0.887-3.915c0,0,4.8,0.308,6.338,4.75c0,0,1.839-4.75,7.643-5.537l1.167,4.99
				l-9.257,3.872L550.475,226.363"/>
		</g>
		<g>
			<g>
				<path style="fill:#455A64;" d="M532.116,266.5c-0.075,0.129-2.536-1.191-5.62-2.709c-3.082-1.525-5.626-2.674-5.57-2.812
					c0.051-0.129,2.698,0.811,5.8,2.345C529.83,264.852,532.187,266.382,532.116,266.5z"/>
			</g>
		</g>
		<g>
			<g>
				<path style="fill:#455A64;" d="M593.323,251.117c0.054,0.036-0.366,0.789-1.192,1.909c-0.824,1.119-2.081,2.586-3.649,4.022
					c-1.572,1.434-3.146,2.553-4.335,3.273c-1.189,0.722-1.977,1.072-2.008,1.015c-0.085-0.141,2.903-1.831,5.992-4.673
					C591.237,253.844,593.19,251.02,593.323,251.117z"/>
			</g>
		</g>
		<g>
			<g>
				<path style="fill:#455A64;" d="M557.701,227.198c0.018,0,0.036,0.212,0.054,0.617c0.014,0.461,0.032,1.048,0.054,1.773
					c0.025,1.607,0.059,3.818,0.101,6.521c0.035,5.568,0.083,13.146,0.136,21.52c-0.006,8.377-0.012,15.956-0.016,21.524
					c-0.027,2.703-0.049,4.914-0.065,6.522c-0.018,0.724-0.032,1.312-0.044,1.773c-0.016,0.405-0.033,0.618-0.051,0.618
					c-0.018,0-0.036-0.213-0.054-0.619c-0.014-0.461-0.032-1.049-0.054-1.773c-0.025-1.607-0.059-3.819-0.101-6.522
					c-0.035-5.567-0.083-13.145-0.136-21.52c0.006-8.372,0.012-15.95,0.016-21.517c0.027-2.704,0.049-4.915,0.065-6.523
					c0.018-0.725,0.032-1.313,0.044-1.774C557.666,227.411,557.683,227.198,557.701,227.198z"/>
			</g>
		</g>
		<g>
			<g>
				<path style="fill:#455A64;" d="M556.761,225.718c-0.024,0.031-0.152-0.063-0.377-0.003c-0.231,0.046-0.446,0.311-0.67,0.733
					c-0.461,0.807-0.942,2.034-1,3.449l-0.025,0.602l-0.423-0.432l-0.023-0.023c-2.029-2.102-3.918-3.553-3.829-3.676
					c0.073-0.114,2.133,1.171,4.203,3.313l0.023,0.023l-0.447,0.17c0.063-1.527,0.642-2.827,1.21-3.623
					c0.253-0.395,0.615-0.752,0.955-0.738C556.685,225.511,556.791,225.706,556.761,225.718z"/>
			</g>
		</g>
		<g>
			<g>
				<path style="fill:#455A64;" d="M565.462,221.749c0.104-0.023,0.617,1.904,1.265,4.689l0.036,0.155l-0.136,0.094
					c-0.825,0.57-1.763,1.175-2.776,1.77c-1.062,0.625-2.095,1.172-3.025,1.627l-0.347,0.169l0.004-0.38
					c0.013-1.34-0.491-2.425-0.934-3.089c-0.45-0.674-0.823-0.987-0.781-1.035c0.023-0.033,0.466,0.206,1.01,0.867
					c0.533,0.65,1.147,1.784,1.178,3.256l-0.343-0.211c0.908-0.478,1.923-1.035,2.975-1.654c1.003-0.589,1.941-1.175,2.774-1.716
					l-0.1,0.248C565.692,223.737,565.358,221.772,565.462,221.749z"/>
			</g>
		</g>
		<g>
			<g>
				<path style="fill:#455A64;" d="M559.22,238.266c0.045,0.059-0.046,0.204,0.013,0.411c0.063,0.223,0.238,0.364,0.471,0.212
					c0.231-0.155,0.168-0.372-0.013-0.516c-0.167-0.134-0.336-0.107-0.373-0.171c-0.051-0.045,0.144-0.276,0.527-0.163
					c0.173,0.057,0.39,0.198,0.476,0.484c0.091,0.293-0.071,0.639-0.329,0.801c-0.249,0.175-0.631,0.19-0.866-0.008
					c-0.23-0.19-0.276-0.444-0.261-0.626C558.91,238.291,559.198,238.202,559.22,238.266z"/>
			</g>
		</g>
		<g>
			<g>
				<path style="fill:#455A64;" d="M559.59,255.325c0.045,0.059-0.045,0.204,0.013,0.411c0.063,0.223,0.238,0.364,0.471,0.212
					c0.231-0.155,0.168-0.372-0.013-0.516c-0.168-0.134-0.336-0.107-0.374-0.171c-0.051-0.045,0.144-0.276,0.527-0.163
					c0.173,0.057,0.39,0.198,0.476,0.484c0.091,0.293-0.071,0.639-0.329,0.801c-0.249,0.175-0.631,0.19-0.866-0.008
					c-0.23-0.19-0.276-0.444-0.261-0.626C559.28,255.351,559.568,255.261,559.59,255.325z"/>
			</g>
		</g>
		<g>
			<g>
				<path style="fill:#455A64;" d="M559.683,274.241c0.045,0.059-0.045,0.204,0.013,0.411c0.063,0.223,0.238,0.364,0.471,0.212
					c0.231-0.155,0.168-0.372-0.013-0.516c-0.167-0.134-0.336-0.107-0.373-0.171c-0.051-0.045,0.144-0.276,0.527-0.163
					c0.174,0.057,0.39,0.198,0.476,0.484c0.091,0.293-0.071,0.639-0.329,0.801c-0.249,0.175-0.631,0.19-0.865-0.008
					c-0.23-0.19-0.276-0.444-0.261-0.626C559.373,274.267,559.661,274.177,559.683,274.241z"/>
			</g>
		</g>
		<g>
			<g>
				<path style="fill:#F5F5F5;" d="M528.359,260.034c-0.141,0.028-0.412-0.73-0.606-1.694c-0.194-0.964-0.236-1.769-0.095-1.797
					c0.141-0.028,0.412,0.73,0.606,1.694C528.457,259.201,528.5,260.005,528.359,260.034z"/>
			</g>
		</g>
		<g>
			<g>
				<path style="fill:#F5F5F5;" d="M532.15,249.328c0.031,0.141-0.759,0.433-1.764,0.654c-1.005,0.221-1.845,0.286-1.876,0.145
					c-0.031-0.14,0.759-0.433,1.764-0.654C531.279,249.253,532.119,249.188,532.15,249.328z"/>
			</g>
		</g>
		<g>
			<g>
				<path style="fill:#F5F5F5;" d="M534.781,255.412c0.105,0.098-0.218,0.614-0.721,1.152c-0.503,0.538-0.996,0.895-1.101,0.797
					c-0.105-0.098,0.218-0.614,0.721-1.152C534.183,255.671,534.676,255.314,534.781,255.412z"/>
			</g>
		</g>
		<g>
			<g>
				<path style="fill:#F5F5F5;" d="M535.373,243.83c-0.144,0.004-0.289-0.961-0.325-2.157c-0.036-1.196,0.051-2.169,0.195-2.173
					c0.144-0.004,0.289,0.961,0.325,2.157C535.604,242.853,535.517,243.826,535.373,243.83z"/>
			</g>
		</g>
		<g>
			<g>
				<path style="fill:#F5F5F5;" d="M543.032,234.139c-0.001,0.144-0.94,0.254-2.096,0.245c-1.157-0.008-2.094-0.131-2.093-0.275
					c0.001-0.144,0.94-0.254,2.097-0.245C542.096,233.872,543.033,233.995,543.032,234.139z"/>
			</g>
		</g>
		<g>
			<g>
				<path style="fill:#F5F5F5;" d="M548.422,233.895c-0.136-0.047,0.08-1.019,0.482-2.17c0.402-1.151,0.839-2.046,0.974-1.999
					c0.136,0.048-0.08,1.019-0.483,2.171C548.993,233.047,548.557,233.942,548.422,233.895z"/>
			</g>
		</g>
		<g>
			<g>
				<path style="fill:#F5F5F5;" d="M546.395,245.92c-0.127,0.067-0.661-0.695-1.192-1.702c-0.531-1.007-0.859-1.878-0.732-1.945
					c0.127-0.067,0.661,0.695,1.192,1.702C546.194,244.982,546.522,245.853,546.395,245.92z"/>
			</g>
		</g>
		<g>
			<g>
				<path style="fill:#F5F5F5;" d="M553.658,241.737c-0.143-0.019-0.164-0.723-0.049-1.571c0.116-0.849,0.325-1.521,0.467-1.501
					c0.143,0.02,0.164,0.723,0.049,1.572C554.01,241.085,553.8,241.757,553.658,241.737z"/>
			</g>
		</g>
		<g>
			<g>
				<path style="fill:#F5F5F5;" d="M552.811,249.015c0.018,0.143-0.656,0.346-1.505,0.455c-0.85,0.109-1.553,0.081-1.571-0.062
					c-0.018-0.143,0.655-0.346,1.505-0.455C552.089,248.844,552.793,248.872,552.811,249.015z"/>
			</g>
		</g>
		<g>
			<g>
				<path style="fill:#F5F5F5;" d="M543.026,258.356c-0.143,0.013-0.324-0.696-0.404-1.582c-0.08-0.887-0.028-1.616,0.115-1.629
					c0.143-0.013,0.324,0.695,0.404,1.582C543.221,257.614,543.17,258.343,543.026,258.356z"/>
			</g>
		</g>
		<g>
			<g>
				<path style="fill:#F5F5F5;" d="M551.114,261.133c0.111,0.091-0.392,0.886-1.123,1.774c-0.731,0.888-1.414,1.534-1.525,1.443
					c-0.111-0.091,0.392-0.885,1.123-1.774C550.32,261.688,551.003,261.042,551.114,261.133z"/>
			</g>
		</g>
		<g>
			<g>
				<path style="fill:#F5F5F5;" d="M544.042,271.75c-0.132,0.057-0.55-0.617-0.934-1.504c-0.384-0.888-0.588-1.654-0.456-1.711
					c0.132-0.057,0.55,0.616,0.934,1.504C543.97,270.927,544.174,271.693,544.042,271.75z"/>
			</g>
		</g>
		<g>
			<g>
				<path style="fill:#F5F5F5;" d="M553.222,272.88c0.141,0.028,0.096,0.862-0.101,1.864c-0.197,1.002-0.471,1.792-0.612,1.764
					c-0.141-0.028-0.096-0.862,0.101-1.865C552.807,273.642,553.081,272.852,553.222,272.88z"/>
			</g>
		</g>
		<g>
			<g>
				<path style="fill:#F5F5F5;" d="M544.526,286.205c-0.109,0.094-0.747-0.472-1.424-1.263c-0.677-0.791-1.138-1.509-1.029-1.602
					c0.109-0.094,0.747,0.472,1.424,1.264C544.175,285.394,544.635,286.112,544.526,286.205z"/>
			</g>
		</g>
		<g>
			<g>
				<path style="fill:#F5F5F5;" d="M544.983,291.286c0.022,0.142-0.772,0.385-1.774,0.543c-1.003,0.158-1.833,0.17-1.855,0.028
					c-0.022-0.142,0.772-0.385,1.774-0.542C544.13,291.156,544.961,291.144,544.983,291.286z"/>
			</g>
		</g>
		<g>
			<g>
				<path style="fill:#F5F5F5;" d="M555.31,284.459c0.098,0.105-0.631,0.945-1.629,1.876c-0.998,0.931-1.886,1.6-1.984,1.495
					c-0.098-0.105,0.631-0.945,1.629-1.876C554.323,285.023,555.212,284.354,555.31,284.459z"/>
			</g>
		</g>
		<g>
			<g>
				<path style="fill:#F5F5F5;" d="M546.913,277.066c0.143,0.02,0.193,0.505,0.112,1.083c-0.081,0.578-0.262,1.031-0.404,1.011
					c-0.142-0.02-0.192-0.504-0.112-1.083C546.589,277.499,546.771,277.047,546.913,277.066z"/>
			</g>
		</g>
		<g>
			<g>
				<path style="fill:#F5F5F5;" d="M555.183,255.283c-0.041,0.138-0.7,0.062-1.471-0.169c-0.771-0.231-1.363-0.531-1.322-0.669
					c0.041-0.138,0.7-0.062,1.471,0.17C554.633,254.846,555.224,255.145,555.183,255.283z"/>
			</g>
		</g>
		<g>
			<g>
				<path style="fill:#F5F5F5;" d="M562.147,249.973c-0.142-0.024-0.1-0.981,0.093-2.138c0.193-1.157,0.465-2.076,0.606-2.052
					c0.142,0.024,0.1,0.981-0.093,2.138C562.561,249.078,562.289,249.996,562.147,249.973z"/>
			</g>
		</g>
		<g>
			<g>
				<path style="fill:#F5F5F5;" d="M570.595,254.824c-0.111,0.092-0.769-0.516-1.471-1.358c-0.702-0.842-1.182-1.599-1.071-1.691
					c0.11-0.092,0.769,0.516,1.471,1.358C570.226,253.974,570.705,254.731,570.595,254.824z"/>
			</g>
		</g>
		<g>
			<g>
				<path style="fill:#F5F5F5;" d="M565.379,258.914c0.133,0.054-0.103,0.943-0.527,1.984c-0.424,1.042-0.876,1.841-1.009,1.787
					c-0.133-0.054,0.103-0.942,0.527-1.984C564.794,259.66,565.245,258.86,565.379,258.914z"/>
			</g>
		</g>
		<g>
			<g>
				<path style="fill:#F5F5F5;" d="M566.068,270.235c-0.103,0.1-0.835-0.483-1.634-1.303c-0.8-0.82-1.364-1.566-1.261-1.667
					c0.103-0.1,0.834,0.483,1.634,1.303C565.607,269.389,566.171,270.135,566.068,270.235z"/>
			</g>
		</g>
		<g>
			<g>
				<path style="fill:#F5F5F5;" d="M572.48,270.781c-0.14-0.031-0.065-0.901,0.167-1.942c0.233-1.041,0.535-1.86,0.676-1.828
					c0.14,0.031,0.065,0.901-0.167,1.942C572.923,269.994,572.621,270.812,572.48,270.781z"/>
			</g>
		</g>
		<g>
			<g>
				<path style="fill:#F5F5F5;" d="M566.37,280.83c-0.112,0.095-0.734-0.467-1.499-1.141c-0.763-0.677-1.397-1.224-1.317-1.348
					c0.075-0.119,0.865,0.251,1.662,0.957C566.014,280.002,566.479,280.741,566.37,280.83z"/>
			</g>
		</g>
		<g>
			<g>
				<path style="fill:#F5F5F5;" d="M566.775,286.987c0.092,0.105-0.516,0.777-1.47,1.331c-0.952,0.558-1.836,0.756-1.882,0.624
					c-0.051-0.138,0.713-0.542,1.62-1.074C565.953,287.34,566.68,286.874,566.775,286.987z"/>
			</g>
		</g>
		<g>
			<g>
				<path style="fill:#F5F5F5;" d="M575.024,288.243c0.144-0.006,0.291,0.771,0.329,1.735c0.038,0.964-0.047,1.75-0.191,1.756
					c-0.144,0.006-0.291-0.771-0.329-1.736C574.795,289.035,574.88,288.249,575.024,288.243z"/>
			</g>
		</g>
		<g>
			<g>
				<path style="fill:#F5F5F5;" d="M571.995,280.842c-0.144-0.003-0.234-1.256-0.203-2.799c0.032-1.543,0.174-2.791,0.318-2.788
					c0.144,0.003,0.234,1.256,0.202,2.799C572.281,279.597,572.138,280.845,571.995,280.842z"/>
			</g>
		</g>
		<g>
			<g>
				<path style="fill:#F5F5F5;" d="M573.758,259.752c0.065,0.124-0.465,0.518-1.242,0.68c-0.777,0.165-1.42,0.019-1.411-0.121
					c0.006-0.147,0.599-0.237,1.304-0.389C573.114,259.777,573.694,259.62,573.758,259.752z"/>
			</g>
		</g>
		<g>
			<g>
				<path style="fill:#F5F5F5;" d="M570.886,238.392c0.143,0.019,0.124,1.034-0.041,2.266c-0.165,1.233-0.415,2.217-0.557,2.197
					c-0.143-0.019-0.124-1.034,0.041-2.267C570.494,239.357,570.744,238.373,570.886,238.392z"/>
			</g>
		</g>
		<g>
			<g>
				<path style="fill:#F5F5F5;" d="M564.421,235.864c0.137-0.043,0.475,0.638,0.754,1.522c0.279,0.884,0.395,1.636,0.258,1.679
					c-0.137,0.043-0.475-0.638-0.754-1.522C564.399,236.659,564.284,235.907,564.421,235.864z"/>
			</g>
		</g>
		<g>
			<g>
				<path style="fill:#F5F5F5;" d="M567.322,230.396c0.062,0.126-0.73,0.638-1.834,0.963c-1.104,0.329-2.047,0.329-2.063,0.19
					c-0.019-0.146,0.857-0.374,1.915-0.689C566.399,230.549,567.258,230.263,567.322,230.396z"/>
			</g>
		</g>
		<g>
			<g>
				<path style="fill:#F5F5F5;" d="M572.082,232.937c-0.135-0.051,0.038-0.842,0.385-1.767c0.347-0.926,0.738-1.635,0.872-1.585
					c0.135,0.05-0.038,0.842-0.385,1.767C572.608,232.278,572.217,232.988,572.082,232.937z"/>
			</g>
		</g>
		<g>
			<g>
				<path style="fill:#F5F5F5;" d="M581.735,238.504c-0.089,0.113-0.913-0.388-1.84-1.118c-0.928-0.731-1.607-1.415-1.518-1.527
					c0.089-0.113,0.913,0.388,1.84,1.118C581.144,237.707,581.823,238.391,581.735,238.504z"/>
			</g>
		</g>
		<g>
			<g>
				<path style="fill:#F5F5F5;" d="M578.376,244.529c-0.144,0.004-0.291-0.993-0.329-2.227c-0.038-1.234,0.047-2.238,0.191-2.243
					c0.144-0.004,0.291,0.992,0.329,2.227C578.605,243.52,578.52,244.524,578.376,244.529z"/>
			</g>
		</g>
		<g>
			<g>
				<path style="fill:#F5F5F5;" d="M581.715,251.837c-0.013,0.143-0.773,0.192-1.698,0.109c-0.925-0.083-1.665-0.267-1.652-0.41
					c0.013-0.143,0.773-0.192,1.698-0.109C580.988,251.51,581.728,251.694,581.715,251.837z"/>
			</g>
		</g>
		<g>
			<g>
				<path style="fill:#F5F5F5;" d="M586.163,251.244c-0.123,0.062-0.689-0.892-0.908-2.221c-0.226-1.329,0-2.414,0.136-2.396
					c0.15,0.012,0.163,1.058,0.378,2.31C585.973,250.19,586.3,251.183,586.163,251.244z"/>
			</g>
		</g>
		<g>
			<g>
				<path style="fill:#F5F5F5;" d="M585.343,257.622c0.027,0.141-0.607,0.383-1.416,0.54c-0.81,0.157-1.488,0.17-1.515,0.029
					c-0.027-0.141,0.606-0.383,1.416-0.54C584.638,257.493,585.316,257.48,585.343,257.622z"/>
			</g>
		</g>
		<g>
			<g>
				<path style="fill:#F5F5F5;" d="M561.747,226.652c-0.094,0.106-0.498-0.111-0.755-0.585c-0.259-0.473-0.222-0.93-0.083-0.952
					c0.144-0.026,0.324,0.313,0.54,0.702C561.66,226.21,561.847,226.545,561.747,226.652z"/>
			</g>
		</g>
		<g>
			<g>
				<path style="fill:#F5F5F5;" d="M564.541,225.814c-0.129,0.064-0.452-0.321-0.722-0.861c-0.27-0.54-0.385-1.03-0.256-1.094
					c0.129-0.064,0.452,0.321,0.722,0.861C564.555,225.26,564.669,225.75,564.541,225.814z"/>
			</g>
		</g>
		<g>
			<g>
				<path style="fill:#F5F5F5;" d="M553.647,225.256c-0.01,0.143-0.456,0.229-0.996,0.19c-0.54-0.038-0.969-0.186-0.959-0.33
					c0.01-0.143,0.456-0.228,0.996-0.19C553.228,224.965,553.657,225.112,553.647,225.256z"/>
			</g>
		</g>
		<g>
			<g>
				<path style="fill:#455A64;" d="M571.341,207.763c-0.005,0.016-0.107,0.005-0.296-0.048c-0.188-0.055-0.46-0.162-0.779-0.361
					c-0.622-0.382-1.494-1.222-1.739-2.596c-0.125-0.661-0.112-1.395-0.339-2.072c-0.114-0.334-0.312-0.633-0.607-0.837
					c-0.293-0.209-0.68-0.324-1.092-0.437c-0.411-0.116-0.87-0.219-1.305-0.488c-0.44-0.265-0.763-0.728-0.935-1.194
					c-0.36-0.926-0.376-1.957-0.931-2.65c-1.211-1.401-3.731-0.04-5.169-1.672c-0.606-0.79-0.63-1.678-0.881-2.361
					c-0.224-0.691-0.67-1.234-1.17-1.599c-1.021-0.748-2.154-0.678-2.817-0.486c-0.685,0.2-1.006,0.468-1.033,0.427
					c-0.01-0.012,0.057-0.092,0.213-0.211c0.156-0.119,0.404-0.275,0.757-0.409c0.677-0.262,1.92-0.414,3.091,0.377
					c0.568,0.382,1.094,0.984,1.366,1.757c0.277,0.745,0.353,1.603,0.843,2.198c0.494,0.597,1.396,0.697,2.321,0.718
					c0.468,0.02,0.96,0.025,1.471,0.131c0.507,0.101,1.043,0.358,1.41,0.798c0.702,0.92,0.673,1.988,1.004,2.797
					c0.153,0.411,0.39,0.747,0.725,0.957c0.336,0.216,0.754,0.326,1.169,0.447c0.415,0.122,0.854,0.252,1.229,0.526
					c0.379,0.27,0.628,0.677,0.749,1.071c0.24,0.798,0.194,1.525,0.294,2.15c0.175,1.253,0.932,2.075,1.491,2.488
					C570.956,207.613,571.358,207.718,571.341,207.763z"/>
			</g>
		</g>
		<g>
			<g>
				<path style="fill:#263238;" d="M551.209,422.751c-0.009,0-0.021-0.11-0.034-0.325c-0.012-0.243-0.028-0.558-0.048-0.955
					c-0.032-0.874-0.078-2.105-0.136-3.674c-0.108-3.225-0.262-7.833-0.452-13.513c-0.395-11.439-0.939-27.186-1.54-44.58
					c-0.566-17.417-0.926-33.188-1.008-44.607c-0.049-5.709-0.045-10.329-0.008-13.522c0.023-1.57,0.04-2.801,0.053-3.676
					c0.011-0.397,0.02-0.712,0.027-0.956c0.009-0.215,0.018-0.326,0.027-0.326c0.009,0,0.018,0.111,0.026,0.326
					c0.006,0.243,0.014,0.559,0.025,0.956c0.011,0.874,0.026,2.106,0.045,3.676c0.041,3.226,0.1,7.836,0.173,13.517
					c0.176,11.414,0.594,27.18,1.161,44.595c0.568,17.409,1.1,33.172,1.388,44.586c0.147,5.707,0.245,10.326,0.287,13.519
					c0.016,1.57,0.029,2.802,0.038,3.677c-0.001,0.397-0.002,0.713-0.003,0.956C551.224,422.64,551.218,422.751,551.209,422.751z"/>
			</g>
		</g>
		<g>
			<g>
				<path style="fill:#263238;" d="M593.246,424.062c-0.141,0.026-5.451-28.539-11.858-63.794
					c-6.409-35.267-11.488-63.867-11.347-63.893c0.142-0.026,5.45,28.533,11.859,63.8
					C588.308,395.43,593.388,424.036,593.246,424.062z"/>
			</g>
		</g>
		<g>
			<g>
				<path style="fill:#263238;" d="M559.555,304.635c0.009,0.026-0.199,0.134-0.604,0.092c-0.396-0.043-0.976-0.284-1.434-0.855
					c-0.466-0.566-0.72-1.399-0.899-2.276c-0.188-0.878-0.366-1.85-0.519-2.875c-0.308-2.051-0.446-3.926-0.481-5.283
					c-0.038-1.357,0.017-2.197,0.086-2.198c0.153-0.004,0.295,3.337,0.911,7.404c0.152,1.016,0.314,1.982,0.474,2.858
					c0.151,0.872,0.353,1.63,0.722,2.148c0.361,0.521,0.84,0.782,1.179,0.878C559.336,304.625,559.549,304.593,559.555,304.635z"/>
			</g>
		</g>
		<g>
			<g>
				<path style="fill:#263238;" d="M557.605,292.005c0.055,0.051-0.03,0.222,0.053,0.452c0.082,0.243,0.318,0.417,0.592,0.233
					c0.276-0.182,0.207-0.466,0.015-0.636c-0.179-0.165-0.37-0.153-0.396-0.223c-0.042-0.052,0.194-0.257,0.584-0.094
					c0.178,0.081,0.387,0.252,0.456,0.554c0.074,0.308-0.098,0.659-0.37,0.833c-0.266,0.184-0.656,0.206-0.911,0.019
					c-0.252-0.18-0.329-0.44-0.334-0.635C557.293,292.085,557.573,291.946,557.605,292.005z"/>
			</g>
		</g>
	</g>
</g>
<g id="Gasoline_Pump">
	<g>
		<g>
			<g>
				<polygon style="fill:#E8505B;" points="712.989,428.285 653.392,428.937 653.392,279.026 712.989,279.026 				"/>
			</g>
			<g style="opacity:0.3;">
				<polygon points="712.989,428.285 653.392,428.937 653.392,279.026 712.989,279.026 				"/>
			</g>
			<g>
				<polygon style="fill:#E8505B;" points="686.126,428.579 626.528,428.937 626.528,279.026 686.126,279.026 				"/>
			</g>
			<g>
				<g>
					<polygon style="fill:#263238;" points="625.144,266.392 625.144,268.167 688.405,268.167 713.993,231.183 713.355,228.695 
											"/>
				</g>
				<g>
					<rect x="644.433" y="267.737" style="fill:#263238;" width="2.043" height="11.289"/>
				</g>
				<g>
					<polygon style="fill:#263238;" points="692.92,259.566 692.92,279.026 695.393,279.026 695.393,257.476 					"/>
				</g>
				<g>
					<polygon style="fill:#455A64;" points="651.029,228.695 625.144,266.392 687.47,266.392 713.355,228.695 					"/>
				</g>
				<g>
					<g>
						<path style="fill:#EBEBEB;" d="M646.431,266.392c-0.118-0.083,5.716-8.589,13.028-18.997
							c7.314-10.412,13.337-18.783,13.455-18.7c0.118,0.083-5.715,8.587-13.029,18.999
							C652.573,258.102,646.548,266.475,646.431,266.392z"/>
					</g>
				</g>
				<g>
					<g>
						<path style="fill:#EBEBEB;" d="M667.293,266.392c-0.118-0.083,5.716-8.589,13.028-18.997
							c7.315-10.412,13.337-18.783,13.455-18.7c0.118,0.083-5.715,8.587-13.029,18.999
							C673.435,258.102,667.411,266.475,667.293,266.392z"/>
					</g>
				</g>
				<g>
					<g>
						<path style="fill:#EBEBEB;" d="M638.727,247.544c0-0.144,13.843-0.26,30.916-0.26c17.078,0,30.919,0.117,30.919,0.26
							s-13.84,0.26-30.919,0.26C652.57,247.804,638.727,247.688,638.727,247.544z"/>
					</g>
				</g>
			</g>
			<g>
				<rect x="639.886" y="295.032" style="fill:#EBEBEB;" width="34.161" height="38.522"/>
			</g>
			<g>
				<g>
					<path style="fill:#263238;" d="M648.381,344.431c0,1.926-1.561,3.488-3.488,3.488c-0.872,0-3.095-0.085-3.095-0.085
						c-1.132-0.695-1.839-2.552-1.839-3.606c0-1.204,0.777-2.683,2.129-3.25c0,0,2.083-0.034,2.805-0.034
						C646.82,340.944,648.381,342.505,648.381,344.431z"/>
				</g>
				<g>
					<circle style="fill:#455A64;" cx="642.563" cy="344.431" r="3.488"/>
				</g>
			</g>
			<g>
				<g>
					<path style="fill:#263238;" d="M661.1,344.431c0,1.926-1.561,3.488-3.488,3.488c-0.872,0-3.095-0.085-3.095-0.085
						c-1.132-0.695-1.839-2.552-1.839-3.606c0-1.204,0.777-2.683,2.129-3.25c0,0,2.083-0.034,2.805-0.034
						C659.539,340.944,661.1,342.505,661.1,344.431z"/>
				</g>
				<g>
					<circle style="fill:#455A64;" cx="655.281" cy="344.431" r="3.488"/>
				</g>
			</g>
			<g>
				<g>
					<path style="fill:#263238;" d="M673.691,344.431c0,1.926-1.562,3.488-3.488,3.488c-0.872,0-3.095-0.085-3.095-0.085
						c-1.131-0.695-1.839-2.552-1.839-3.606c0-1.204,0.777-2.683,2.129-3.25c0,0,2.083-0.034,2.805-0.034
						C672.13,340.944,673.691,342.505,673.691,344.431z"/>
				</g>
				<g>
					<path style="fill:#455A64;" d="M671.36,344.431c0,1.926-1.561,3.488-3.488,3.488s-3.488-1.561-3.488-3.488
						c0-1.926,1.562-3.488,3.488-3.488S671.36,342.505,671.36,344.431z"/>
				</g>
			</g>
			<g>
				<polygon style="fill:#E8505B;" points="657.79,303.155 650.022,303.256 657.194,314.285 651.764,314.355 659.367,329.525 
					656.752,318.249 663.91,318.156 				"/>
			</g>
		</g>
		<g>
			<g>
				<path style="fill:#263238;" d="M677.253,421.174c-0.005-0.005-0.009-0.106-0.014-0.302c-0.003-0.213-0.008-0.497-0.014-0.862
					c-0.007-0.776-0.016-1.888-0.029-3.323c-0.015-2.913-0.037-7.132-0.064-12.456c-0.029-10.66-0.069-25.736-0.117-43.498
					l0.238,0.238c-12.371,0.007-26.116,0.014-40.569,0.022c-0.065,0.054,0.489-0.486,0.255-0.249v0.017v0.033v0.067v0.133v0.267
					v0.533l0,1.064c0,0.708,0,1.414,0,2.119c0,1.409-0.001,2.81-0.001,4.204c-0.001,2.786-0.002,5.54-0.003,8.257
					c-0.004,5.432-0.007,10.714-0.01,15.805c-0.014,10.18-0.027,19.597-0.038,27.931l-0.208-0.208
					c12.324,0.046,22.439,0.083,29.497,0.109c3.519,0.023,6.274,0.041,8.174,0.053c0.927,0.01,1.645,0.018,2.152,0.023
					C676.991,421.159,677.253,421.174,677.253,421.174s-0.233,0.015-0.707,0.022c-0.498,0.005-1.203,0.013-2.113,0.023
					c-1.889,0.012-4.628,0.03-8.127,0.053c-7.089,0.026-17.249,0.064-29.627,0.109l-0.208,0.001l0-0.209
					c-0.011-8.334-0.024-17.751-0.038-27.931c-0.003-5.091-0.007-10.373-0.01-15.805c-0.001-2.716-0.002-5.47-0.003-8.257
					c0-1.393-0.001-2.795-0.001-4.204c0-0.704,0-1.411,0-2.119l0-1.064v-0.533v-0.267v-0.133v-0.067v-0.033v-0.017
					c-0.231,0.228,0.314-0.331,0.265-0.272c14.454,0.008,28.199,0.015,40.569,0.022l0.239,0l-0.001,0.238
					c-0.048,17.825-0.089,32.956-0.117,43.654c-0.027,5.301-0.049,9.502-0.064,12.402c-0.013,1.414-0.022,2.51-0.029,3.275
					c-0.006,0.354-0.01,0.629-0.014,0.835C677.263,421.086,677.258,421.179,677.253,421.174z"/>
			</g>
		</g>
		<g>
			<g>
				<path style="fill:#263238;" d="M671.627,390.744c0.063,0.051-0.227,0.36-0.121,0.918c0.051,0.264,0.206,0.578,0.484,0.739
					c0.268,0.168,0.667,0.127,0.987-0.104c0.318-0.234,0.478-0.602,0.4-0.909c-0.068-0.314-0.32-0.557-0.557-0.686
					c-0.499-0.27-0.882-0.088-0.911-0.164c-0.058-0.033,0.346-0.418,1.059-0.173c0.327,0.121,0.72,0.399,0.873,0.902
					c0.165,0.509-0.096,1.125-0.557,1.45c-0.45,0.34-1.116,0.401-1.551,0.089c-0.433-0.299-0.578-0.757-0.594-1.106
					C671.124,390.947,671.613,390.679,671.627,390.744z"/>
			</g>
		</g>
	</g>
</g>
</svg>
